<?xml version="1.0" encoding="UTF-8" standalone="no"?>
<svg
   xmlns:dc="http://purl.org/dc/elements/1.1/"
   xmlns:cc="http://creativecommons.org/ns#"
   xmlns:rdf="http://www.w3.org/1999/02/22-rdf-syntax-ns#"
   xmlns:svg="http://www.w3.org/2000/svg"
   xmlns="http://www.w3.org/2000/svg"
   xmlns:sodipodi="http://sodipodi.sourceforge.net/DTD/sodipodi-0.dtd"
   xmlns:inkscape="http://www.inkscape.org/namespaces/inkscape"
   width="181.83838mm"
   height="54.51083mm"
   viewBox="0 0 181.83837 54.510831"
   version="1.1"
   id="svg8"
   inkscape:version="1.0.1 (3bc2e813f5, 2020-09-07)"
   sodipodi:docname="temporary.svg">
  <defs
     id="defs2">
    <marker
       style="overflow:visible"
       id="marker5554"
       refX="0"
       refY="0"
       orient="auto"
       inkscape:stockid="Arrow1Mstart"
       inkscape:isstock="true">
      <path
         transform="matrix(0.4,0,0,0.4,4,0)"
         style="fill:#000000;fill-opacity:1;fill-rule:evenodd;stroke:#000000;stroke-width:1pt;stroke-opacity:1"
         d="M 0,0 5,-5 -12.5,0 5,5 Z"
         id="path5552" />
    </marker>
    <marker
       style="overflow:visible"
       id="marker5484"
       refX="0"
       refY="0"
       orient="auto"
       inkscape:stockid="Arrow1Mend"
       inkscape:isstock="true">
      <path
         transform="matrix(-0.4,0,0,-0.4,-4,0)"
         style="fill:#000000;fill-opacity:1;fill-rule:evenodd;stroke:#000000;stroke-width:1pt;stroke-opacity:1"
         d="M 0,0 5,-5 -12.5,0 5,5 Z"
         id="path5482" />
    </marker>
    <marker
       style="overflow:visible"
       id="marker5340"
       refX="0"
       refY="0"
       orient="auto"
       inkscape:stockid="Arrow1Mend"
       inkscape:isstock="true"
       inkscape:collect="always">
      <path
         transform="matrix(-0.4,0,0,-0.4,-4,0)"
         style="fill:#000000;fill-opacity:1;fill-rule:evenodd;stroke:#000000;stroke-width:1pt;stroke-opacity:1"
         d="M 0,0 5,-5 -12.5,0 5,5 Z"
         id="path5338" />
    </marker>
    <rect
       x="-38.46077"
       y="96.425659"
       width="1.8838946"
       height="63.647461"
       id="rect5281" />
    <marker
       style="overflow:visible"
       id="marker4325"
       refX="0"
       refY="0"
       orient="auto"
       inkscape:stockid="Arrow1Mstart"
       inkscape:isstock="true"
       inkscape:collect="always">
      <path
         transform="matrix(0.4,0,0,0.4,4,0)"
         style="fill:#000000;fill-opacity:1;fill-rule:evenodd;stroke:#000000;stroke-width:1pt;stroke-opacity:1"
         d="M 0,0 5,-5 -12.5,0 5,5 Z"
         id="path4323" />
    </marker>
    <marker
       style="overflow:visible"
       id="marker3635"
       refX="0"
       refY="0"
       orient="auto"
       inkscape:stockid="Arrow1Mend"
       inkscape:isstock="true"
       inkscape:collect="always">
      <path
         transform="matrix(-0.4,0,0,-0.4,-4,0)"
         style="fill:#000000;fill-opacity:1;fill-rule:evenodd;stroke:#000000;stroke-width:1pt;stroke-opacity:1"
         d="M 0,0 5,-5 -12.5,0 5,5 Z"
         id="path3633" />
    </marker>
    <marker
       style="overflow:visible"
       id="marker3571"
       refX="0"
       refY="0"
       orient="auto"
       inkscape:stockid="Arrow1Mend"
       inkscape:isstock="true">
      <path
         transform="matrix(-0.4,0,0,-0.4,-4,0)"
         style="fill:#000000;fill-opacity:1;fill-rule:evenodd;stroke:#000000;stroke-width:1pt;stroke-opacity:1"
         d="M 0,0 5,-5 -12.5,0 5,5 Z"
         id="path3569" />
    </marker>
    <marker
       style="overflow:visible"
       id="marker1213"
       refX="0"
       refY="0"
       orient="auto"
       inkscape:stockid="Arrow1Send"
       inkscape:isstock="true">
      <path
         transform="matrix(-0.2,0,0,-0.2,-1.2,0)"
         style="fill:#000000;fill-opacity:1;fill-rule:evenodd;stroke:#000000;stroke-width:1pt;stroke-opacity:1"
         d="M 0,0 5,-5 -12.5,0 5,5 Z"
         id="path1211" />
    </marker>
    <marker
       style="overflow:visible"
       id="Arrow1Mstart"
       refX="0"
       refY="0"
       orient="auto"
       inkscape:stockid="Arrow1Mstart"
       inkscape:isstock="true">
      <path
         transform="matrix(0.4,0,0,0.4,4,0)"
         style="fill:#000000;fill-opacity:1;fill-rule:evenodd;stroke:#000000;stroke-width:1pt;stroke-opacity:1"
         d="M 0,0 5,-5 -12.5,0 5,5 Z"
         id="path857" />
    </marker>
    <marker
       style="overflow:visible"
       id="Arrow1Lstart"
       refX="0"
       refY="0"
       orient="auto"
       inkscape:stockid="Arrow1Lstart"
       inkscape:isstock="true">
      <path
         transform="matrix(0.8,0,0,0.8,10,0)"
         style="fill:#000000;fill-opacity:1;fill-rule:evenodd;stroke:#000000;stroke-width:1pt;stroke-opacity:1"
         d="M 0,0 5,-5 -12.5,0 5,5 Z"
         id="path851" />
    </marker>
    <clipPath
       clipPathUnits="userSpaceOnUse"
       id="clipPath1733">
      <path
         d="m 10.7,10.7 h 558 v 166.32 h -558 z"
         id="path1731" />
    </clipPath>
    <clipPath
       clipPathUnits="userSpaceOnUse"
       id="clipPath1755">
      <path
         d="m 10.7,10.7 h 558 v 166.32 h -558 z"
         id="path1753" />
    </clipPath>
    <clipPath
       clipPathUnits="userSpaceOnUse"
       id="clipPath1765">
      <path
         d="M -8,-8 H 8 V 8 H -8 Z"
         id="path1763" />
    </clipPath>
    <clipPath
       clipPathUnits="userSpaceOnUse"
       id="clipPath1777">
      <path
         d="M -8,-8 H 8 V 8 H -8 Z"
         id="path1775" />
    </clipPath>
    <clipPath
       clipPathUnits="userSpaceOnUse"
       id="clipPath1789">
      <path
         d="M -8,-8 H 8 V 8 H -8 Z"
         id="path1787" />
    </clipPath>
    <clipPath
       clipPathUnits="userSpaceOnUse"
       id="clipPath1801">
      <path
         d="M -8,-8 H 8 V 8 H -8 Z"
         id="path1799" />
    </clipPath>
    <clipPath
       clipPathUnits="userSpaceOnUse"
       id="clipPath1813">
      <path
         d="M -8,-8 H 8 V 8 H -8 Z"
         id="path1811" />
    </clipPath>
    <clipPath
       clipPathUnits="userSpaceOnUse"
       id="clipPath1825">
      <path
         d="M -8,-8 H 8 V 8 H -8 Z"
         id="path1823" />
    </clipPath>
    <clipPath
       clipPathUnits="userSpaceOnUse"
       id="clipPath1837">
      <path
         d="M -8,-8 H 8 V 8 H -8 Z"
         id="path1835" />
    </clipPath>
    <clipPath
       clipPathUnits="userSpaceOnUse"
       id="clipPath1847">
      <path
         d="m 10.7,10.7 h 558 v 166.32 h -558 z"
         id="path1845" />
    </clipPath>
    <clipPath
       clipPathUnits="userSpaceOnUse"
       id="clipPath2215">
      <path
         d="m 10.7,10.7 h 558 v 166.32 h -558 z"
         id="path2213" />
    </clipPath>
    <clipPath
       clipPathUnits="userSpaceOnUse"
       id="clipPath2237">
      <path
         d="m 10.7,10.7 h 558 v 166.32 h -558 z"
         id="path2235" />
    </clipPath>
    <clipPath
       clipPathUnits="userSpaceOnUse"
       id="clipPath2247">
      <path
         d="M -8,-8 H 8 V 8 H -8 Z"
         id="path2245" />
    </clipPath>
    <clipPath
       clipPathUnits="userSpaceOnUse"
       id="clipPath2259">
      <path
         d="M -8,-8 H 8 V 8 H -8 Z"
         id="path2257" />
    </clipPath>
    <clipPath
       clipPathUnits="userSpaceOnUse"
       id="clipPath2271">
      <path
         d="M -8,-8 H 8 V 8 H -8 Z"
         id="path2269" />
    </clipPath>
    <clipPath
       clipPathUnits="userSpaceOnUse"
       id="clipPath2283">
      <path
         d="M -8,-8 H 8 V 8 H -8 Z"
         id="path2281" />
    </clipPath>
    <clipPath
       clipPathUnits="userSpaceOnUse"
       id="clipPath2295">
      <path
         d="M -8,-8 H 8 V 8 H -8 Z"
         id="path2293" />
    </clipPath>
    <clipPath
       clipPathUnits="userSpaceOnUse"
       id="clipPath2307">
      <path
         d="M -8,-8 H 8 V 8 H -8 Z"
         id="path2305" />
    </clipPath>
    <clipPath
       clipPathUnits="userSpaceOnUse"
       id="clipPath2319">
      <path
         d="M -8,-8 H 8 V 8 H -8 Z"
         id="path2317" />
    </clipPath>
    <clipPath
       clipPathUnits="userSpaceOnUse"
       id="clipPath2329">
      <path
         d="m 10.7,10.7 h 558 v 166.32 h -558 z"
         id="path2327" />
    </clipPath>
    <clipPath
       clipPathUnits="userSpaceOnUse"
       id="clipPath2215-7">
      <path
         d="m 10.7,10.7 h 558 v 166.32 h -558 z"
         id="path2213-3" />
    </clipPath>
    <clipPath
       clipPathUnits="userSpaceOnUse"
       id="clipPath2237-3">
      <path
         d="m 10.7,10.7 h 558 v 166.32 h -558 z"
         id="path2235-5" />
    </clipPath>
    <clipPath
       clipPathUnits="userSpaceOnUse"
       id="clipPath2247-8">
      <path
         d="M -8,-8 H 8 V 8 H -8 Z"
         id="path2245-0" />
    </clipPath>
    <clipPath
       clipPathUnits="userSpaceOnUse"
       id="clipPath2259-1">
      <path
         d="M -8,-8 H 8 V 8 H -8 Z"
         id="path2257-0" />
    </clipPath>
    <clipPath
       clipPathUnits="userSpaceOnUse"
       id="clipPath2271-8">
      <path
         d="M -8,-8 H 8 V 8 H -8 Z"
         id="path2269-5" />
    </clipPath>
    <clipPath
       clipPathUnits="userSpaceOnUse"
       id="clipPath2283-9">
      <path
         d="M -8,-8 H 8 V 8 H -8 Z"
         id="path2281-7" />
    </clipPath>
    <clipPath
       clipPathUnits="userSpaceOnUse"
       id="clipPath2295-6">
      <path
         d="M -8,-8 H 8 V 8 H -8 Z"
         id="path2293-9" />
    </clipPath>
    <clipPath
       clipPathUnits="userSpaceOnUse"
       id="clipPath2307-4">
      <path
         d="M -8,-8 H 8 V 8 H -8 Z"
         id="path2305-4" />
    </clipPath>
    <clipPath
       clipPathUnits="userSpaceOnUse"
       id="clipPath2319-1">
      <path
         d="M -8,-8 H 8 V 8 H -8 Z"
         id="path2317-6" />
    </clipPath>
    <clipPath
       clipPathUnits="userSpaceOnUse"
       id="clipPath2329-9">
      <path
         d="m 10.7,10.7 h 558 v 166.32 h -558 z"
         id="path2327-3" />
    </clipPath>
    <clipPath
       clipPathUnits="userSpaceOnUse"
       id="clipPath2655">
      <path
         d="m 10.7,10.7 h 279 v 166.32 h -279 z"
         id="path2653" />
    </clipPath>
    <clipPath
       clipPathUnits="userSpaceOnUse"
       id="clipPath2673">
      <path
         d="m 10.7,10.7 h 279 v 166.32 h -279 z"
         id="path2671" />
    </clipPath>
    <clipPath
       clipPathUnits="userSpaceOnUse"
       id="clipPath2683">
      <path
         d="M -8,-8 H 8 V 8 H -8 Z"
         id="path2681" />
    </clipPath>
    <clipPath
       clipPathUnits="userSpaceOnUse"
       id="clipPath2695">
      <path
         d="M -8,-8 H 8 V 8 H -8 Z"
         id="path2693" />
    </clipPath>
    <clipPath
       clipPathUnits="userSpaceOnUse"
       id="clipPath2707">
      <path
         d="M -8,-8 H 8 V 8 H -8 Z"
         id="path2705" />
    </clipPath>
    <clipPath
       clipPathUnits="userSpaceOnUse"
       id="clipPath2719">
      <path
         d="M -8,-8 H 8 V 8 H -8 Z"
         id="path2717" />
    </clipPath>
    <clipPath
       clipPathUnits="userSpaceOnUse"
       id="clipPath2731">
      <path
         d="M -8,-8 H 8 V 8 H -8 Z"
         id="path2729" />
    </clipPath>
    <clipPath
       clipPathUnits="userSpaceOnUse"
       id="clipPath2741">
      <path
         d="m 10.7,10.7 h 279 v 166.32 h -279 z"
         id="path2739" />
    </clipPath>
    <clipPath
       clipPathUnits="userSpaceOnUse"
       id="clipPath2655-7">
      <path
         d="m 10.7,10.7 h 279 v 166.32 h -279 z"
         id="path2653-0" />
    </clipPath>
    <clipPath
       clipPathUnits="userSpaceOnUse"
       id="clipPath2673-5">
      <path
         d="m 10.7,10.7 h 279 v 166.32 h -279 z"
         id="path2671-8" />
    </clipPath>
    <clipPath
       clipPathUnits="userSpaceOnUse"
       id="clipPath2683-4">
      <path
         d="M -8,-8 H 8 V 8 H -8 Z"
         id="path2681-4" />
    </clipPath>
    <clipPath
       clipPathUnits="userSpaceOnUse"
       id="clipPath2695-7">
      <path
         d="M -8,-8 H 8 V 8 H -8 Z"
         id="path2693-4" />
    </clipPath>
    <clipPath
       clipPathUnits="userSpaceOnUse"
       id="clipPath2707-3">
      <path
         d="M -8,-8 H 8 V 8 H -8 Z"
         id="path2705-5" />
    </clipPath>
    <clipPath
       clipPathUnits="userSpaceOnUse"
       id="clipPath2719-0">
      <path
         d="M -8,-8 H 8 V 8 H -8 Z"
         id="path2717-0" />
    </clipPath>
    <clipPath
       clipPathUnits="userSpaceOnUse"
       id="clipPath2731-3">
      <path
         d="M -8,-8 H 8 V 8 H -8 Z"
         id="path2729-8" />
    </clipPath>
    <clipPath
       clipPathUnits="userSpaceOnUse"
       id="clipPath2741-6">
      <path
         d="m 10.7,10.7 h 279 v 166.32 h -279 z"
         id="path2739-7" />
    </clipPath>
    <clipPath
       clipPathUnits="userSpaceOnUse"
       id="clipPath3011">
      <path
         d="m 10.7,10.7 h 279 v 166.32 h -279 z"
         id="path3009" />
    </clipPath>
    <clipPath
       clipPathUnits="userSpaceOnUse"
       id="clipPath3021">
      <path
         d="m 10.7,10.7 h 279 v 166.32 h -279 z"
         id="path3019" />
    </clipPath>
    <clipPath
       clipPathUnits="userSpaceOnUse"
       id="clipPath3039">
      <path
         d="m 10.7,10.7 h 279 v 166.32 h -279 z"
         id="path3037" />
    </clipPath>
    <clipPath
       clipPathUnits="userSpaceOnUse"
       id="clipPath3049">
      <path
         d="M -8,-8 H 8 V 8 H -8 Z"
         id="path3047" />
    </clipPath>
    <clipPath
       clipPathUnits="userSpaceOnUse"
       id="clipPath3061">
      <path
         d="M -8,-8 H 8 V 8 H -8 Z"
         id="path3059" />
    </clipPath>
    <clipPath
       clipPathUnits="userSpaceOnUse"
       id="clipPath3073">
      <path
         d="M -8,-8 H 8 V 8 H -8 Z"
         id="path3071" />
    </clipPath>
    <clipPath
       clipPathUnits="userSpaceOnUse"
       id="clipPath3085">
      <path
         d="M -8,-8 H 8 V 8 H -8 Z"
         id="path3083" />
    </clipPath>
    <clipPath
       clipPathUnits="userSpaceOnUse"
       id="clipPath3097">
      <path
         d="M -8,-8 H 8 V 8 H -8 Z"
         id="path3095" />
    </clipPath>
    <clipPath
       clipPathUnits="userSpaceOnUse"
       id="clipPath3107">
      <path
         d="m 10.7,10.7 h 279 v 166.32 h -279 z"
         id="path3105" />
    </clipPath>
    <clipPath
       clipPathUnits="userSpaceOnUse"
       id="clipPath3011-4">
      <path
         d="m 10.7,10.7 h 279 v 166.32 h -279 z"
         id="path3009-8" />
    </clipPath>
    <clipPath
       clipPathUnits="userSpaceOnUse"
       id="clipPath3021-7">
      <path
         d="m 10.7,10.7 h 279 v 166.32 h -279 z"
         id="path3019-1" />
    </clipPath>
    <clipPath
       clipPathUnits="userSpaceOnUse"
       id="clipPath3039-6">
      <path
         d="m 10.7,10.7 h 279 v 166.32 h -279 z"
         id="path3037-8" />
    </clipPath>
    <clipPath
       clipPathUnits="userSpaceOnUse"
       id="clipPath3049-7">
      <path
         d="M -8,-8 H 8 V 8 H -8 Z"
         id="path3047-5" />
    </clipPath>
    <clipPath
       clipPathUnits="userSpaceOnUse"
       id="clipPath3061-0">
      <path
         d="M -8,-8 H 8 V 8 H -8 Z"
         id="path3059-3" />
    </clipPath>
    <clipPath
       clipPathUnits="userSpaceOnUse"
       id="clipPath3073-3">
      <path
         d="M -8,-8 H 8 V 8 H -8 Z"
         id="path3071-3" />
    </clipPath>
    <clipPath
       clipPathUnits="userSpaceOnUse"
       id="clipPath3085-9">
      <path
         d="M -8,-8 H 8 V 8 H -8 Z"
         id="path3083-6" />
    </clipPath>
    <clipPath
       clipPathUnits="userSpaceOnUse"
       id="clipPath3097-0">
      <path
         d="M -8,-8 H 8 V 8 H -8 Z"
         id="path3095-2" />
    </clipPath>
    <clipPath
       clipPathUnits="userSpaceOnUse"
       id="clipPath3107-2">
      <path
         d="m 10.7,10.7 h 279 v 166.32 h -279 z"
         id="path3105-7" />
    </clipPath>
    <marker
       style="overflow:visible"
       id="marker3571-6"
       refX="0"
       refY="0"
       orient="auto"
       inkscape:stockid="Arrow1Mend"
       inkscape:isstock="true">
      <path
         transform="matrix(-0.4,0,0,-0.4,-4,0)"
         style="fill:#000000;fill-opacity:1;fill-rule:evenodd;stroke:#000000;stroke-width:1pt;stroke-opacity:1"
         d="M 0,0 5,-5 -12.5,0 5,5 Z"
         id="path3569-3" />
    </marker>
    <clipPath
       clipPathUnits="userSpaceOnUse"
       id="clipPath5021">
      <path
         d="m 10.7,10.7 h 279 v 166.32 h -279 z"
         id="path5019" />
    </clipPath>
    <clipPath
       clipPathUnits="userSpaceOnUse"
       id="clipPath5068">
      <path
         d="m 10.7,10.7 h 279 v 166.32 h -279 z"
         id="path5066" />
    </clipPath>
    <clipPath
       clipPathUnits="userSpaceOnUse"
       id="clipPath5115">
      <path
         d="m 10.7,10.7 h 279 v 166.32 h -279 z"
         id="path5113" />
    </clipPath>
    <clipPath
       clipPathUnits="userSpaceOnUse"
       id="clipPath5162">
      <path
         d="m 10.7,10.7 h 279 v 166.32 h -279 z"
         id="path5160" />
    </clipPath>
  </defs>
  <sodipodi:namedview
     id="base"
     pagecolor="#ffffff"
     bordercolor="#666666"
     borderopacity="1.0"
     inkscape:pageopacity="0.0"
     inkscape:pageshadow="2"
     inkscape:zoom="1.7969412"
     inkscape:cx="415.57119"
     inkscape:cy="96.941239"
     inkscape:document-units="mm"
     inkscape:current-layer="g5158"
     inkscape:document-rotation="0"
     showgrid="false"
     fit-margin-top="0"
     fit-margin-left="0"
     fit-margin-right="0"
     fit-margin-bottom="0"
     inkscape:window-width="2400"
     inkscape:window-height="1271"
     inkscape:window-x="-9"
     inkscape:window-y="-9"
     inkscape:window-maximized="1" />
  <metadata
     id="metadata5">
    <rdf:RDF>
      <cc:Work
         rdf:about="">
        <dc:format>image/svg+xml</dc:format>
        <dc:type
           rdf:resource="http://purl.org/dc/dcmitype/StillImage" />
        <dc:title></dc:title>
      </cc:Work>
    </rdf:RDF>
  </metadata>
  <g
     inkscape:label="Layer 1"
     inkscape:groupmode="layer"
     id="layer1"
     transform="translate(-37.890492,-41.707529)">
    <g
       id="g5150"
       inkscape:label="RP2_welch"
       transform="matrix(0.35277777,0,0,-0.35277777,147.77593,125.24991)">
      <g
         id="g5156"
         transform="matrix(1.8526388,-0.0078394,0.00382974,1.2981107,-207.29877,60.984241)">
        <g
           id="g5158"
           clip-path="url(#clipPath5162)"
           transform="translate(-66.908576,-24.625181)">
          <path
             d="M 8.0429675,42.141455 288.57492,42.379945 288.61482,159.9582 8.0828649,159.71971 Z"
             style="fill:#e5e5e5;fill-opacity:1;fill-rule:nonzero;stroke:none;stroke-width:0.84311"
             id="path5154" />
          <path
             d="m 21.523054,97.775389 0.24229,3.057181 0.24338,1.32118 0.24472,-0.81408 0.24579,-2.529381 0.49221,-6.05326 0.2451,-1.41946 0.24395,0.41116 0.24301,1.901 0.48519,5.1461 0.24316,1.667941 0.24382,0.61166 0.24438,-0.27468 0.48915,-1.181641 0.24429,-0.1222 0.24411,0.14574 0.24419,0.0286 0.24463,-0.67724 0.2453,-1.73038 0.24592,-2.74217 0.49253,-6.54879 0.24576,-2.474147 0.24506,-1.359694 0.24434,-0.22185 0.2439,0.49013 0.2438,0.644944 0.24405,0.26139 0.24445,-0.39769 0.24486,-1.042614 0.73509,-3.92406 0.48932,-1.453865 0.2447,-0.785422 0.2449,-1.098291 0.49012,-2.716271 0.24474,-0.846992 0.24426,-0.08575 0.24368,0.835072 0.24311,1.746417 0.72887,5.975658 0.24371,0.791704 0.24415,0.0869 0.24472,-0.812999 0.24458,-0.59861 0.24431,-0.160169 0.24394,0.426653 0.24332,1.420885 0.24296,1.974744 0.7281,7.210927 0.24327,1.49622 0.24419,0.0231 0.24506,-1.37252 0.24596,-2.78628 0.7398,-11.448482 0.24559,-2.190777 0.24428,-0.127682 0.2431,1.766873 0.48384,7.284421 0.24187,3.712037 0.24259,2.57741 0.24341,1.26697 0.24408,0.20787 0.24439,-0.29309 0.24419,0.029 0.24367,0.86211 0.24317,1.63426 0.24288,2.11546 0.24316,1.67247 0.24386,0.54719 0.24489,-1.09726 0.24585,-2.62657 0.4924,-6.33944 0.24528,-1.734107 0.24414,0.121487 0.24311,1.73651 0.48501,5.42768 0.24301,1.91197 0.2438,0.63297 0.24449,-0.45369 0.4896,-1.8873 0.24436,-0.25914 0.24393,0.44856 0.48749,1.48145 0.2443,-0.15973 0.24482,-0.98503 0.49021,-2.85505 0.24443,-0.36716 0.24338,1.31644 0.24235,2.96804 0.72498,12.153331 0.24269,2.42126 0.24365,0.88769 0.24448,-0.44339 0.24497,-1.21298 0.7355,-4.59881 0.2454,-1.89201 0.49171,-5.265061 0.24601,-2.88025 0.24559,-2.19802 0.24472,-0.81574 0.2435,1.12148 0.24239,2.88682 0.48341,7.971391 0.24249,2.74064 0.24386,0.54192 0.24541,-1.90946 0.24661,-3.83462 0.49395,-8.830961 0.24584,-2.5988 0.24455,-0.55987 0.24342,1.25418 0.48567,4.37028 0.24345,1.20153 0.24431,-0.16893 0.24507,-1.35505 0.24536,-1.84526 0.24512,-1.47054 0.2444,-0.29471 0.24344,1.20126 0.24267,2.4556 0.48482,5.723361 0.2432,1.59442 0.24419,0.0422 0.24512,-1.45848 0.73711,-7.167501 0.24482,-0.98315 0.24405,0.24804 0.24347,1.17407 0.24326,1.51813 0.24347,1.16491 0.24406,0.2423 0.24477,-0.91862 0.24548,-2.01051 0.98336,-10.435561 0.24499,-1.24442 0.24449,-0.455 0.2441,0.17692 0.24383,0.59483 0.24367,0.85732 0.48707,2.137334 0.48734,1.701607 0.48765,1.21591 0.24388,0.53015 0.24374,0.72395 0.24352,1.09924 0.24302,1.87981 0.24258,2.59965 0.48457,6.129031 0.24273,2.33591 0.24305,1.83847 0.24358,1.01241 0.24426,-0.10486 0.24464,-0.68162 0.2448,-0.9439 0.24446,-0.40992 0.24388,0.52648 0.24339,1.30626 0.48633,3.31074 0.24384,0.57566 0.24447,-0.42102 0.24513,-1.46244 0.49073,-3.70711 0.245,-1.26603 0.24454,-0.53903 0.24401,0.32071 0.97446,3.75252 0.24387,0.54193 0.48726,1.84442 0.72955,4.88359 0.24552,-2.08657 0.24767,-5.54219 0.24468,-0.74049 0.49092,-4.0001 0.24526,-1.68575 0.24441,-0.32102 0.24379,0.661 0.48684,2.49774 0.24438,-0.26739 0.24517,-1.53149 0.49233,-6.258331 0.24632,-3.36007 0.24572,-2.40553 0.24489,-1.10002 0.24383,0.59627 0.48658,2.91466 0.24396,0.38614 0.24468,-0.74475 0.2455,-2.06858 0.49157,-5.031401 0.24509,-1.41903 0.24299,1.960154 0.24106,5.018567 0.48536,4.83891 0.4854,4.80874 0.24334,1.377791 0.24394,0.40835 0.2444,-0.28865 0.24499,-1.250511 0.2456,-2.23111 0.24492,-1.14179 0.24406,0.23583 0.24376,0.70422 0.24397,0.38563 0.24403,0.27549 0.48827,0.23493 0.24418,0.0381 0.24431,-0.17383 0.24461,-0.64604 0.24491,-1.12174 0.49079,-3.79177 0.24546,-1.98488 0.24501,-1.27907 0.24421,-0.0223 0.24325,1.51736 0.24238,2.92604 0.72563,11.123351 0.24276,2.30873 0.24369,0.82077 0.24471,-0.81435 0.24551,-2.0671 0.4918,-5.387451 0.24547,-2.01831 0.2449,-1.10245 0.24426,-0.0919 0.24373,0.76441 0.48665,2.819851 0.7302,3.84099 0.24361,0.96183 0.24377,0.69133 0.24398,0.35815 0.2443,-0.13965 0.24453,-0.53157 0.24474,-0.83712 0.48969,-2.04695 0.48931,-1.40866 0.48933,-1.450651 0.24491,-1.14686 0.49061,-3.49097 0.24531,-1.75938 0.24488,-1.06439 0.2441,0.16168 0.24324,1.53401 0.24261,2.54648 0.4847,5.934781 0.2431,1.75833 0.24415,0.0874 0.24535,-1.81568 0.24629,-3.320811 0.49352,-8.15221 0.24624,-3.22269 0.24543,-1.957577 0.2446,-0.61065 0.24389,0.48452 0.24344,1.21728 0.48603,3.806597 0.485546,4.56424 0.97019,10.581781 0.24292,2.0398 0.24332,1.42174 0.24368,0.84768 0.24406,0.22054 0.24432,-0.18021 0.24443,-0.35577 0.24455,-0.54219 0.48934,-1.47467 0.73417,-2.46711 0.24447,-0.42472 0.24426,-0.083 0.244,0.33216 0.7316,1.62014 0.24408,0.21288 0.2442,-0.0123 0.48865,-0.35309 0.24444,-0.38572 0.24469,-0.76625 0.24514,-1.4767 0.24575,-2.46391 0.24645,-3.579331 0.98851,-18.608264 0.2457,-2.381537 0.24451,-0.486411 0.24345,1.198325 0.48514,5.224396 0.48534,4.905171 0.24322,1.57281 0.24355,1.04452 0.24376,0.71147 0.24389,0.5032 0.24407,0.21922 0.24435,-0.23382 0.24481,-0.96723 0.24536,-1.82777 0.49189,-5.529501 0.24598,-2.835392 0.24556,-2.155003 0.24488,-1.075241 0.24416,0.06895 0.24366,0.85589 0.24352,1.10198 0.24372,0.777983 0.2442,0.01156 0.24482,-0.95944 0.49036,-3.109533 0.24479,-0.93474 0.24411,0.161795 0.24329,1.464503 0.24255,2.62337 0.72655,9.686109 0.24275,2.31506 0.2432,1.60802 0.48711,2.08532 0.48727,1.81715 0.2439,0.48461 0.24447,-0.4227 0.24534,-1.80745 0.24636,-3.42337 0.495,-10.497033 0.24765,-5.49865 0.24689,-4.274893 0.2456,-2.212819 0.24405,0.258325 0.24266,2.459587 0.967,15.651663 0.24296,1.97645 0.24351,1.13556 0.24365,0.88641 0.24347,1.16648 0.24314,1.70471 0.48577,4.20849 0.2433,1.4407 0.24408,0.209861 0.24494,-1.172241 0.24566,-2.31975 0.49203,-5.76041 0.2455,-2.06003 0.24477,-0.89061 0.24396,0.38423 0.24329,1.46648 0.24281,2.21543 1.21287,13.009591 0.24348,1.17145 0.24428,-0.12248 0.2452,-1.57793 0.24605,-2.93292 0.73991,-11.622211 0.24558,-2.18133 0.24448,-0.44259 0.24342,1.25558 0.72794,7.46241 0.24331,1.41616 0.24406,0.24811 0.24472,-0.81814 0.24517,-1.54094 1.4723,-11.248701 0.24487,-1.04605 0.24446,-0.42163 0.24406,0.23917 0.24372,0.78319 0.73075,2.962454 0.4874,1.625727 0.2433,1.44325 0.2428,2.24341 0.7267,9.434831 0.24305,1.851 0.24413,0.11507 0.24525,-1.66349 0.73816,-8.824411 0.24501,-1.27701 0.24398,0.35729 0.24317,1.661 0.48573,4.2696 0.24325,1.53617 0.24359,0.973711 0.24375,0.7281 0.24358,0.99243 0.24322,1.57722 0.48594,3.93607 0.2436,0.96093 0.24464,-0.67808 0.24581,-2.54152 0.74039,-12.391771 0.24567,-2.33897 0.24443,-0.36306 0.24345,1.20783 0.24312,1.73352 v 0"
             style="fill:none;stroke:#e24a33;stroke-width:0.786635;stroke-linecap:square;stroke-linejoin:round;stroke-miterlimit:10;stroke-dasharray:none;stroke-opacity:1"
             id="path5164" />
          <path
             d="m 162.66286,93.567379 0.23035,1.63901 0.22965,2.50717 0.45849,6.053811 0.2299,2.18586 0.23109,0.71567 0.23259,-1.1907 0.23395,-2.89547 0.70458,-12.100581 0.23376,-2.65764 0.23273,-1.358345 0.23193,-0.35323 0.23157,0.0904 0.23169,-0.051 0.23218,-0.66094 0.2327,-1.32231 0.69907,-5.1906 0.23229,-0.80202 0.23156,0.1143 0.23094,0.88875 0.46088,3.03791 0.46083,3.10247 0.2308,1.06814 0.23123,0.523715 0.23137,0.35278 0.23183,-0.22715 0.23199,-0.42413 0.46376,-0.579845 0.46394,-0.8179 0.46445,-1.44957 0.46484,-1.93558 0.23224,-0.73756 0.23192,-0.3413 0.2314,0.30703 0.23093,0.90386 0.46094,2.97366 0.46118,2.659575 0.23106,0.73789 0.23142,0.28511 0.23169,-0.0557 0.46359,-0.36325 0.23191,-0.3274 0.23205,-0.4955 0.23231,-0.84472 0.69802,-3.862785 0.23206,-0.50922 0.23129,0.43533 0.23051,1.44489 0.69025,5.905865 0.23108,0.70795 0.23201,-0.44928 0.23277,-1.4043 0.69945,-5.670195 0.23271,-1.33692 0.46496,-2.084 0.23266,-1.25968 0.69841,-4.365918 0.23202,-0.465563 0.2311,0.685221 0.23019,1.83745 0.4586,5.90129 0.45861,5.902235 0.22997,2.10252 0.23054,1.40093 0.23094,0.87384 0.23121,0.56501 0.46275,0.69204 0.23145,0.25144 0.23154,0.14042 0.92644,0.19032 0.23157,0.10446 0.23169,-0.0564 0.23192,-0.32845 0.2322,-0.69355 0.92965,-3.84509 0.23182,-0.21604 0.23143,0.27273 0.46229,1.26952 0.46212,1.47734 0.23085,1.00255 0.23061,1.31317 0.69086,5.13535 0.231,0.805511 0.23195,-0.37355 0.23298,-1.673921 0.46814,-6.07363 0.23413,-3.13039 0.23349,-2.31314 0.23264,-1.249875 0.23187,-0.26282 0.23136,0.35202 0.46262,0.863245 0.23138,0.3304 0.23104,0.76229 0.23028,1.71494 0.22917,3.11444 0.68507,12.429551 0.23051,1.42688 0.23301,-1.70785 0.23523,-4.5178 0.70995,-18.846316 0.23351,-2.33781 0.23055,1.38016 0.22837,4.11297 0.4556,9.674815 0.23025,1.75884 0.23288,-1.53461 0.23503,-4.25373 0.47101,-9.694965 0.23291,-1.60641 0.23,2.09467 0.22752,5.18337 0.45323,12.655085 0.22887,3.494741 0.23169,-0.0567 0.23435,-3.393031 0.47199,-10.92276 0.23483,-3.993795 0.23274,-1.38099 0.23068,1.21777 0.45922,5.125335 0.231,0.80451 0.2331,-1.80818 0.23499,-4.211165 0.47169,-10.545865 0.23426,-3.281957 0.23199,-0.426975 0.22975,2.38075 0.68456,13.065327 0.23007,1.981655 0.23186,-0.263485 0.23318,-1.93121 0.46712,-4.8079 0.23256,-1.13847 0.23138,0.33702 0.23035,1.63759 1.37848,14.350705 0.4599,4.26152 0.23058,1.337841 0.2314,0.31872 0.23231,-0.82309 0.23312,-1.844411 0.46709,-4.78961 0.23286,-1.52071 0.23179,-0.17389 0.23069,1.21965 0.91959,8.802081 0.23109,0.69415 0.23165,-0.008 0.69586,-1.14265 0.23143,0.26855 0.23118,0.59286 0.23086,0.99474 0.23272,-1.3413 0.23212,-0.60914 0.23039,1.58854 0.23155,0.1274 0.23146,0.23941 0.46511,-2.27285 1.16686,-10.840611 0.4653,-2.51596 0.23235,-0.87312 0.23253,-1.104235 0.23204,-0.49657 0.23149,0.20055 0.23046,1.490405 0.22944,2.78757 0.6857,11.614171 0.23006,1.99471 0.23185,-0.25121 0.23391,-2.846741 0.70577,-13.593425 0.23323,-1.99664 0.23149,0.19683 0.69098,4.993065 0.2318,-0.1962 0.233,-1.70223 0.23337,-2.159895 0.2328,-1.44784 0.2313,0.43951 0.22927,2.982345 0.45451,11.04959 0.22741,5.336101 0.22896,3.38637 0.23105,0.75126 0.2329,-1.59537 0.46795,-5.83128 0.23335,-2.137641 0.23245,-1.01041 0.23185,-0.241 0.23171,-0.0801 0.23215,-0.64267 0.69816,-4.03776 0.23167,-0.0215 0.23063,1.2801 0.23009,1.96911 0.23041,1.5549 0.23179,-0.17992 0.23372,-2.61666 0.23556,-4.9168 0.47222,-11.211675 0.2339,-2.8209 0.23109,0.68789 0.22862,3.80929 0.45486,10.614975 0.2292,3.0736 0.2317,-0.0669 0.23402,-2.98745 0.46997,-8.377045 0.2331,-1.82779 0.23083,1.02781 0.22899,3.34665 0.45728,7.563715 0.23063,1.28122 0.23252,-1.096 0.70114,-7.790085 0.23179,-0.16879 0.23038,1.58824 0.4595,4.780765 0.23076,1.11375 0.23199,-0.4272 0.23292,-1.5972 0.46617,-3.600855 0.23228,-0.79858 0.23176,-0.14868 0.2317,-0.0602 0.23207,-0.53407 0.23264,-1.2485 0.46583,-3.18287 0.23214,-0.61758 0.23112,0.67131 0.69107,4.8708 0.23202,-0.46666 0.23356,-2.39744 0.70356,-10.837989 0.23254,-1.112046 0.23085,0.998785 0.68949,6.84808 0.23142,0.29782 0.23259,-1.17583 0.4661,-3.527234 0.23216,-0.635878 0.23112,0.653696 0.4609,3.015256 0.23106,0.72898 0.23208,-0.53314 0.23297,-1.66826 0.46646,-3.957247 0.23241,-0.968185 0.23161,0.05194 0.4623,1.259966 0.2317,-0.07027 0.23242,-0.967293 0.4657,-3.022354 0.23221,-0.713738 0.23117,0.615933 0.23003,2.030998 0.45804,6.60709 0.45846,6.07763 0.23006,1.99567 0.2307,1.19045 0.23127,0.47001 0.23199,-0.41337 0.23278,-1.4158 0.23363,-2.49915 0.70298,-10.089731 0.23267,-1.29607 0.23069,1.201177 0.22874,3.665254 0.68182,16.497915 0.22899,3.33747 0.23057,1.35449 0.23161,0.0662 0.23166,-0.0301 0.23086,0.9965 0.22959,2.584301 0.45737,7.45661 0.22984,2.28103 0.23207,-0.53225 0.23447,-3.54586 0.47344,-12.759641 0.2365,-6.10301 0.23478,-3.914775 0.23244,-1.0103 0.23053,1.4034 0.68841,8.224905 0.46097,2.93019 0.23047,1.48805 0.2299,2.19104 0.68811,8.587661 0.23044,1.52686 0.23128,0.44904 0.23183,-0.21705 0.2317,-0.0711 0.23113,0.65432 0.23018,1.85801 0.45919,5.16419 0.23056,1.37215 0.23189,-0.31142 0.23361,-2.46728 0.23473,-3.87094 0.234,-2.96325 0.2332,-1.94187 0.23173,-0.10519 0.23046,1.47854 0.45995,4.22335 0.23095,0.86942 0.23224,-0.73533 0.69992,-6.24242 0.2321,-0.57416 0.23116,0.61155 0.23083,1.03371 0.23123,0.52065 0.23219,-0.67949 0.23337,-2.15869 0.70237,-9.338561 0.23339,-2.18546 0.93139,-6.03127 0.46721,-4.904235 0.23289,-1.57063 0.23179,-0.1837 0.23056,1.37094 0.45954,4.71983 0.23049,1.460085 0.23167,-0.0277 0.23292,-1.594595 0.70107,-7.70666 0.23277,-1.39795 0.23197,-0.40868 0.23143,0.27414 0.46232,1.22672 0.23108,0.71415 0.23082,1.03661 0.23037,1.61296 0.68986,6.400525 0.23087,0.97655 0.23181,-0.20868 0.46491,-2.031435 0.23163,0.0223 0.23027,1.744375 0.22891,3.43983 0.45634,8.750781 0.22946,2.73928 0.23148,0.22019 0.23362,-2.47632 0.70533,-13.061161 0.23339,-2.182995 0.23199,-0.42537 0.23134,0.38801 0.23173,-0.10892 0.2331,-1.80572 0.23473,-3.87882 0.7083,-16.807057 0.23381,-2.707678 0.23149,0.205288 0.22954,2.661479 0.45697,7.939258 0.22935,2.891836 0.23051,1.426594 0.23144,0.27187 0.2317,-0.0625 0.2312,0.55559 0.23027,1.73152 0.2294,2.83529 0.45776,6.951645 0.22956,2.61809 v 0"
             style="fill:none;stroke:#e24a33;stroke-width:0.793933;stroke-linecap:square;stroke-linejoin:round;stroke-miterlimit:10;stroke-dasharray:none;stroke-opacity:1"
             id="path5117" />
          <text
             xml:space="preserve"
             style="font-size:12.8966px;line-height:1.25;font-family:sans-serif;text-align:center;text-anchor:middle;stroke-width:0.483623"
             x="338.74213"
             y="-60.569283"
             id="text5768"
             transform="matrix(0.83706229,0.00505509,0.00246955,-1.1946393,0,0)"><tspan
               sodipodi:role="line"
               id="tspan5766"
               x="338.74213"
               y="-60.569283"
               style="stroke-width:0.483623">t</tspan></text>
        </g>
        <path
           style="fill:none;stroke:#000000;stroke-width:1.03275;stroke-linecap:butt;stroke-linejoin:miter;stroke-miterlimit:4;stroke-dasharray:none;stroke-opacity:1;marker-end:url(#marker3635)"
           d="M -51.637071,66.535256 215.77558,68.150184"
           id="path5199" />
        <path
           style="fill:none;stroke:#000000;stroke-width:0.522083px;stroke-linecap:butt;stroke-linejoin:miter;stroke-opacity:1"
           d="m -34.346899,109.96405 0.167047,-80.809026"
           id="path5291" />
        <path
           style="fill:none;stroke:#000000;stroke-width:0.483623px;stroke-linecap:butt;stroke-linejoin:miter;stroke-opacity:1"
           d="M 13.147706,99.053979 13.291049,29.712154"
           id="path5291-8" />
        <path
           style="fill:none;stroke:#000000;stroke-width:0.483623px;stroke-linecap:butt;stroke-linejoin:miter;stroke-opacity:1"
           d="M 60.83099,100.11779 60.974333,30.775974"
           id="path5291-4" />
        <path
           style="fill:none;stroke:#000000;stroke-width:0.491682px;stroke-linecap:butt;stroke-linejoin:miter;stroke-opacity:1"
           d="m 110.79499,101.44975 0.14572,-70.49729"
           id="path5291-7" />
        <path
           style="fill:none;stroke:#000000;stroke-width:0.483623px;stroke-linecap:butt;stroke-linejoin:miter;stroke-opacity:1"
           d="m 156.16963,100.80611 0.14334,-69.341807"
           id="path5291-6" />
        <path
           style="fill:none;stroke:#000000;stroke-width:0.511686px;stroke-linecap:butt;stroke-linejoin:miter;stroke-opacity:1"
           d="m 201.36435,110.13845 0.16046,-77.623015"
           id="path5291-83" />
        <text
           xml:space="preserve"
           style="font-size:12.8966px;line-height:1.25;font-family:sans-serif;text-align:center;text-anchor:middle;stroke-width:0.483623"
           x="103.54044"
           y="-59.309608"
           id="text5334"
           transform="matrix(0.83706229,0.00505509,0.00246955,-1.1946393,0,0)"><tspan
             sodipodi:role="line"
             id="tspan5332"
             x="103.54044"
             y="-59.309608"
             style="stroke-width:0.483623">...</tspan></text>
        <path
           style="fill:none;stroke:#000000;stroke-width:0.482561px;stroke-linecap:butt;stroke-linejoin:miter;stroke-opacity:1;marker-start:url(#marker4325);marker-end:url(#marker5340)"
           d="m -33.03164,106.07454 231.93402,1.40067"
           id="path5336" />
        <text
           xml:space="preserve"
           style="font-size:12.8966px;line-height:1.25;font-family:sans-serif;text-align:center;text-anchor:middle;stroke-width:0.483623"
           x="103.30302"
           y="-95.974495"
           id="text5476"
           transform="matrix(0.83706229,0.00505509,0.00246955,-1.1946393,0,0)"><tspan
             sodipodi:role="line"
             id="tspan5474"
             x="103.30302"
             y="-95.974495"
             style="stroke-width:0.483623">T<tspan
   style="font-size:65%;baseline-shift:sub"
   id="tspan5478">p</tspan></tspan></text>
        <path
           style="fill:none;stroke:#000000;stroke-width:0.484385;stroke-linecap:butt;stroke-linejoin:miter;stroke-miterlimit:4;stroke-dasharray:none;stroke-opacity:1;marker-start:url(#marker5554);marker-end:url(#marker5484)"
           d="m 14.394088,35.549379 45.241248,0.273216"
           id="path5480" />
        <text
           xml:space="preserve"
           style="font-size:12.8966px;line-height:1.25;font-family:sans-serif;text-align:center;text-anchor:middle;stroke-width:0.483623"
           x="38.940556"
           y="-35.021263"
           id="text5666"
           transform="matrix(0.83706229,0.00505509,0.00246955,-1.1946393,0,0)"><tspan
             sodipodi:role="line"
             id="tspan5664"
             x="38.940556"
             y="-35.021263"
             style="stroke-width:0.483623">T<tspan
   style="font-size:65%;baseline-shift:sub"
   id="tspan5668">r</tspan></tspan></text>
      </g>
    </g>
  </g>
</svg>
