<?xml version="1.0" encoding="UTF-8" standalone="no"?>
<svg
   xmlns:dc="http://purl.org/dc/elements/1.1/"
   xmlns:cc="http://creativecommons.org/ns#"
   xmlns:rdf="http://www.w3.org/1999/02/22-rdf-syntax-ns#"
   xmlns:svg="http://www.w3.org/2000/svg"
   xmlns="http://www.w3.org/2000/svg"
   xmlns:sodipodi="http://sodipodi.sourceforge.net/DTD/sodipodi-0.dtd"
   xmlns:inkscape="http://www.inkscape.org/namespaces/inkscape"
   width="165.60098mm"
   height="64.199493mm"
   viewBox="0 0 165.60098 64.199494"
   version="1.1"
   id="svg8"
   inkscape:version="1.0.1 (3bc2e813f5, 2020-09-07)"
   sodipodi:docname="windowing_time.svg">
  <defs
     id="defs2">
    <marker
       style="overflow:visible"
       id="marker6750"
       refX="0"
       refY="0"
       orient="auto"
       inkscape:stockid="Arrow1Mend"
       inkscape:isstock="true">
      <path
         transform="matrix(-0.4,0,0,-0.4,-4,0)"
         style="fill:#000000;fill-opacity:1;fill-rule:evenodd;stroke:#000000;stroke-width:1pt;stroke-opacity:1"
         d="M 0,0 5,-5 -12.5,0 5,5 Z"
         id="path6748" />
    </marker>
    <marker
       style="overflow:visible"
       id="marker5554"
       refX="0"
       refY="0"
       orient="auto"
       inkscape:stockid="Arrow1Mstart"
       inkscape:isstock="true">
      <path
         transform="matrix(0.4,0,0,0.4,4,0)"
         style="fill:#000000;fill-opacity:1;fill-rule:evenodd;stroke:#000000;stroke-width:1pt;stroke-opacity:1"
         d="M 0,0 5,-5 -12.5,0 5,5 Z"
         id="path5552" />
    </marker>
    <marker
       style="overflow:visible"
       id="marker5484"
       refX="0"
       refY="0"
       orient="auto"
       inkscape:stockid="Arrow1Mend"
       inkscape:isstock="true"
       inkscape:collect="always">
      <path
         transform="matrix(-0.4,0,0,-0.4,-4,0)"
         style="fill:#000000;fill-opacity:1;fill-rule:evenodd;stroke:#000000;stroke-width:1pt;stroke-opacity:1"
         d="M 0,0 5,-5 -12.5,0 5,5 Z"
         id="path5482" />
    </marker>
    <rect
       x="-38.46077"
       y="96.425659"
       width="1.8838946"
       height="63.647461"
       id="rect5281" />
    <marker
       style="overflow:visible"
       id="marker3571"
       refX="0"
       refY="0"
       orient="auto"
       inkscape:stockid="Arrow1Mend"
       inkscape:isstock="true">
      <path
         transform="matrix(-0.4,0,0,-0.4,-4,0)"
         style="fill:#000000;fill-opacity:1;fill-rule:evenodd;stroke:#000000;stroke-width:1pt;stroke-opacity:1"
         d="M 0,0 5,-5 -12.5,0 5,5 Z"
         id="path3569" />
    </marker>
    <marker
       style="overflow:visible"
       id="marker1213"
       refX="0"
       refY="0"
       orient="auto"
       inkscape:stockid="Arrow1Send"
       inkscape:isstock="true">
      <path
         transform="matrix(-0.2,0,0,-0.2,-1.2,0)"
         style="fill:#000000;fill-opacity:1;fill-rule:evenodd;stroke:#000000;stroke-width:1pt;stroke-opacity:1"
         d="M 0,0 5,-5 -12.5,0 5,5 Z"
         id="path1211" />
    </marker>
    <marker
       style="overflow:visible"
       id="Arrow1Mstart"
       refX="0"
       refY="0"
       orient="auto"
       inkscape:stockid="Arrow1Mstart"
       inkscape:isstock="true">
      <path
         transform="matrix(0.4,0,0,0.4,4,0)"
         style="fill:#000000;fill-opacity:1;fill-rule:evenodd;stroke:#000000;stroke-width:1pt;stroke-opacity:1"
         d="M 0,0 5,-5 -12.5,0 5,5 Z"
         id="path857" />
    </marker>
    <marker
       style="overflow:visible"
       id="Arrow1Lstart"
       refX="0"
       refY="0"
       orient="auto"
       inkscape:stockid="Arrow1Lstart"
       inkscape:isstock="true">
      <path
         transform="matrix(0.8,0,0,0.8,10,0)"
         style="fill:#000000;fill-opacity:1;fill-rule:evenodd;stroke:#000000;stroke-width:1pt;stroke-opacity:1"
         d="M 0,0 5,-5 -12.5,0 5,5 Z"
         id="path851" />
    </marker>
    <clipPath
       clipPathUnits="userSpaceOnUse"
       id="clipPath1733">
      <path
         d="m 10.7,10.7 h 558 v 166.32 h -558 z"
         id="path1731" />
    </clipPath>
    <clipPath
       clipPathUnits="userSpaceOnUse"
       id="clipPath1755">
      <path
         d="m 10.7,10.7 h 558 v 166.32 h -558 z"
         id="path1753" />
    </clipPath>
    <clipPath
       clipPathUnits="userSpaceOnUse"
       id="clipPath1765">
      <path
         d="M -8,-8 H 8 V 8 H -8 Z"
         id="path1763" />
    </clipPath>
    <clipPath
       clipPathUnits="userSpaceOnUse"
       id="clipPath1777">
      <path
         d="M -8,-8 H 8 V 8 H -8 Z"
         id="path1775" />
    </clipPath>
    <clipPath
       clipPathUnits="userSpaceOnUse"
       id="clipPath1789">
      <path
         d="M -8,-8 H 8 V 8 H -8 Z"
         id="path1787" />
    </clipPath>
    <clipPath
       clipPathUnits="userSpaceOnUse"
       id="clipPath1801">
      <path
         d="M -8,-8 H 8 V 8 H -8 Z"
         id="path1799" />
    </clipPath>
    <clipPath
       clipPathUnits="userSpaceOnUse"
       id="clipPath1813">
      <path
         d="M -8,-8 H 8 V 8 H -8 Z"
         id="path1811" />
    </clipPath>
    <clipPath
       clipPathUnits="userSpaceOnUse"
       id="clipPath1825">
      <path
         d="M -8,-8 H 8 V 8 H -8 Z"
         id="path1823" />
    </clipPath>
    <clipPath
       clipPathUnits="userSpaceOnUse"
       id="clipPath1837">
      <path
         d="M -8,-8 H 8 V 8 H -8 Z"
         id="path1835" />
    </clipPath>
    <clipPath
       clipPathUnits="userSpaceOnUse"
       id="clipPath1847">
      <path
         d="m 10.7,10.7 h 558 v 166.32 h -558 z"
         id="path1845" />
    </clipPath>
    <clipPath
       clipPathUnits="userSpaceOnUse"
       id="clipPath2215">
      <path
         d="m 10.7,10.7 h 558 v 166.32 h -558 z"
         id="path2213" />
    </clipPath>
    <clipPath
       clipPathUnits="userSpaceOnUse"
       id="clipPath2237">
      <path
         d="m 10.7,10.7 h 558 v 166.32 h -558 z"
         id="path2235" />
    </clipPath>
    <clipPath
       clipPathUnits="userSpaceOnUse"
       id="clipPath2247">
      <path
         d="M -8,-8 H 8 V 8 H -8 Z"
         id="path2245" />
    </clipPath>
    <clipPath
       clipPathUnits="userSpaceOnUse"
       id="clipPath2259">
      <path
         d="M -8,-8 H 8 V 8 H -8 Z"
         id="path2257" />
    </clipPath>
    <clipPath
       clipPathUnits="userSpaceOnUse"
       id="clipPath2271">
      <path
         d="M -8,-8 H 8 V 8 H -8 Z"
         id="path2269" />
    </clipPath>
    <clipPath
       clipPathUnits="userSpaceOnUse"
       id="clipPath2283">
      <path
         d="M -8,-8 H 8 V 8 H -8 Z"
         id="path2281" />
    </clipPath>
    <clipPath
       clipPathUnits="userSpaceOnUse"
       id="clipPath2295">
      <path
         d="M -8,-8 H 8 V 8 H -8 Z"
         id="path2293" />
    </clipPath>
    <clipPath
       clipPathUnits="userSpaceOnUse"
       id="clipPath2307">
      <path
         d="M -8,-8 H 8 V 8 H -8 Z"
         id="path2305" />
    </clipPath>
    <clipPath
       clipPathUnits="userSpaceOnUse"
       id="clipPath2319">
      <path
         d="M -8,-8 H 8 V 8 H -8 Z"
         id="path2317" />
    </clipPath>
    <clipPath
       clipPathUnits="userSpaceOnUse"
       id="clipPath2329">
      <path
         d="m 10.7,10.7 h 558 v 166.32 h -558 z"
         id="path2327" />
    </clipPath>
    <clipPath
       clipPathUnits="userSpaceOnUse"
       id="clipPath2215-7">
      <path
         d="m 10.7,10.7 h 558 v 166.32 h -558 z"
         id="path2213-3" />
    </clipPath>
    <clipPath
       clipPathUnits="userSpaceOnUse"
       id="clipPath2237-3">
      <path
         d="m 10.7,10.7 h 558 v 166.32 h -558 z"
         id="path2235-5" />
    </clipPath>
    <clipPath
       clipPathUnits="userSpaceOnUse"
       id="clipPath2247-8">
      <path
         d="M -8,-8 H 8 V 8 H -8 Z"
         id="path2245-0" />
    </clipPath>
    <clipPath
       clipPathUnits="userSpaceOnUse"
       id="clipPath2259-1">
      <path
         d="M -8,-8 H 8 V 8 H -8 Z"
         id="path2257-0" />
    </clipPath>
    <clipPath
       clipPathUnits="userSpaceOnUse"
       id="clipPath2271-8">
      <path
         d="M -8,-8 H 8 V 8 H -8 Z"
         id="path2269-5" />
    </clipPath>
    <clipPath
       clipPathUnits="userSpaceOnUse"
       id="clipPath2283-9">
      <path
         d="M -8,-8 H 8 V 8 H -8 Z"
         id="path2281-7" />
    </clipPath>
    <clipPath
       clipPathUnits="userSpaceOnUse"
       id="clipPath2295-6">
      <path
         d="M -8,-8 H 8 V 8 H -8 Z"
         id="path2293-9" />
    </clipPath>
    <clipPath
       clipPathUnits="userSpaceOnUse"
       id="clipPath2307-4">
      <path
         d="M -8,-8 H 8 V 8 H -8 Z"
         id="path2305-4" />
    </clipPath>
    <clipPath
       clipPathUnits="userSpaceOnUse"
       id="clipPath2319-1">
      <path
         d="M -8,-8 H 8 V 8 H -8 Z"
         id="path2317-6" />
    </clipPath>
    <clipPath
       clipPathUnits="userSpaceOnUse"
       id="clipPath2329-9">
      <path
         d="m 10.7,10.7 h 558 v 166.32 h -558 z"
         id="path2327-3" />
    </clipPath>
    <clipPath
       clipPathUnits="userSpaceOnUse"
       id="clipPath2655">
      <path
         d="m 10.7,10.7 h 279 v 166.32 h -279 z"
         id="path2653" />
    </clipPath>
    <clipPath
       clipPathUnits="userSpaceOnUse"
       id="clipPath2673">
      <path
         d="m 10.7,10.7 h 279 v 166.32 h -279 z"
         id="path2671" />
    </clipPath>
    <clipPath
       clipPathUnits="userSpaceOnUse"
       id="clipPath2683">
      <path
         d="M -8,-8 H 8 V 8 H -8 Z"
         id="path2681" />
    </clipPath>
    <clipPath
       clipPathUnits="userSpaceOnUse"
       id="clipPath2695">
      <path
         d="M -8,-8 H 8 V 8 H -8 Z"
         id="path2693" />
    </clipPath>
    <clipPath
       clipPathUnits="userSpaceOnUse"
       id="clipPath2707">
      <path
         d="M -8,-8 H 8 V 8 H -8 Z"
         id="path2705" />
    </clipPath>
    <clipPath
       clipPathUnits="userSpaceOnUse"
       id="clipPath2719">
      <path
         d="M -8,-8 H 8 V 8 H -8 Z"
         id="path2717" />
    </clipPath>
    <clipPath
       clipPathUnits="userSpaceOnUse"
       id="clipPath2731">
      <path
         d="M -8,-8 H 8 V 8 H -8 Z"
         id="path2729" />
    </clipPath>
    <clipPath
       clipPathUnits="userSpaceOnUse"
       id="clipPath2741">
      <path
         d="m 10.7,10.7 h 279 v 166.32 h -279 z"
         id="path2739" />
    </clipPath>
    <clipPath
       clipPathUnits="userSpaceOnUse"
       id="clipPath2655-7">
      <path
         d="m 10.7,10.7 h 279 v 166.32 h -279 z"
         id="path2653-0" />
    </clipPath>
    <clipPath
       clipPathUnits="userSpaceOnUse"
       id="clipPath2673-5">
      <path
         d="m 10.7,10.7 h 279 v 166.32 h -279 z"
         id="path2671-8" />
    </clipPath>
    <clipPath
       clipPathUnits="userSpaceOnUse"
       id="clipPath2683-4">
      <path
         d="M -8,-8 H 8 V 8 H -8 Z"
         id="path2681-4" />
    </clipPath>
    <clipPath
       clipPathUnits="userSpaceOnUse"
       id="clipPath2695-7">
      <path
         d="M -8,-8 H 8 V 8 H -8 Z"
         id="path2693-4" />
    </clipPath>
    <clipPath
       clipPathUnits="userSpaceOnUse"
       id="clipPath2707-3">
      <path
         d="M -8,-8 H 8 V 8 H -8 Z"
         id="path2705-5" />
    </clipPath>
    <clipPath
       clipPathUnits="userSpaceOnUse"
       id="clipPath2719-0">
      <path
         d="M -8,-8 H 8 V 8 H -8 Z"
         id="path2717-0" />
    </clipPath>
    <clipPath
       clipPathUnits="userSpaceOnUse"
       id="clipPath2731-3">
      <path
         d="M -8,-8 H 8 V 8 H -8 Z"
         id="path2729-8" />
    </clipPath>
    <clipPath
       clipPathUnits="userSpaceOnUse"
       id="clipPath2741-6">
      <path
         d="m 10.7,10.7 h 279 v 166.32 h -279 z"
         id="path2739-7" />
    </clipPath>
    <clipPath
       clipPathUnits="userSpaceOnUse"
       id="clipPath3011">
      <path
         d="m 10.7,10.7 h 279 v 166.32 h -279 z"
         id="path3009" />
    </clipPath>
    <clipPath
       clipPathUnits="userSpaceOnUse"
       id="clipPath3021">
      <path
         d="m 10.7,10.7 h 279 v 166.32 h -279 z"
         id="path3019" />
    </clipPath>
    <clipPath
       clipPathUnits="userSpaceOnUse"
       id="clipPath3039">
      <path
         d="m 10.7,10.7 h 279 v 166.32 h -279 z"
         id="path3037" />
    </clipPath>
    <clipPath
       clipPathUnits="userSpaceOnUse"
       id="clipPath3049">
      <path
         d="M -8,-8 H 8 V 8 H -8 Z"
         id="path3047" />
    </clipPath>
    <clipPath
       clipPathUnits="userSpaceOnUse"
       id="clipPath3061">
      <path
         d="M -8,-8 H 8 V 8 H -8 Z"
         id="path3059" />
    </clipPath>
    <clipPath
       clipPathUnits="userSpaceOnUse"
       id="clipPath3073">
      <path
         d="M -8,-8 H 8 V 8 H -8 Z"
         id="path3071" />
    </clipPath>
    <clipPath
       clipPathUnits="userSpaceOnUse"
       id="clipPath3085">
      <path
         d="M -8,-8 H 8 V 8 H -8 Z"
         id="path3083" />
    </clipPath>
    <clipPath
       clipPathUnits="userSpaceOnUse"
       id="clipPath3097">
      <path
         d="M -8,-8 H 8 V 8 H -8 Z"
         id="path3095" />
    </clipPath>
    <clipPath
       clipPathUnits="userSpaceOnUse"
       id="clipPath3107">
      <path
         d="m 10.7,10.7 h 279 v 166.32 h -279 z"
         id="path3105" />
    </clipPath>
    <clipPath
       clipPathUnits="userSpaceOnUse"
       id="clipPath3011-4">
      <path
         d="m 10.7,10.7 h 279 v 166.32 h -279 z"
         id="path3009-8" />
    </clipPath>
    <clipPath
       clipPathUnits="userSpaceOnUse"
       id="clipPath3021-7">
      <path
         d="m 10.7,10.7 h 279 v 166.32 h -279 z"
         id="path3019-1" />
    </clipPath>
    <clipPath
       clipPathUnits="userSpaceOnUse"
       id="clipPath3039-6">
      <path
         d="m 10.7,10.7 h 279 v 166.32 h -279 z"
         id="path3037-8" />
    </clipPath>
    <clipPath
       clipPathUnits="userSpaceOnUse"
       id="clipPath3049-7">
      <path
         d="M -8,-8 H 8 V 8 H -8 Z"
         id="path3047-5" />
    </clipPath>
    <clipPath
       clipPathUnits="userSpaceOnUse"
       id="clipPath3061-0">
      <path
         d="M -8,-8 H 8 V 8 H -8 Z"
         id="path3059-3" />
    </clipPath>
    <clipPath
       clipPathUnits="userSpaceOnUse"
       id="clipPath3073-3">
      <path
         d="M -8,-8 H 8 V 8 H -8 Z"
         id="path3071-3" />
    </clipPath>
    <clipPath
       clipPathUnits="userSpaceOnUse"
       id="clipPath3085-9">
      <path
         d="M -8,-8 H 8 V 8 H -8 Z"
         id="path3083-6" />
    </clipPath>
    <clipPath
       clipPathUnits="userSpaceOnUse"
       id="clipPath3097-0">
      <path
         d="M -8,-8 H 8 V 8 H -8 Z"
         id="path3095-2" />
    </clipPath>
    <clipPath
       clipPathUnits="userSpaceOnUse"
       id="clipPath3107-2">
      <path
         d="m 10.7,10.7 h 279 v 166.32 h -279 z"
         id="path3105-7" />
    </clipPath>
    <marker
       style="overflow:visible"
       id="marker3571-6"
       refX="0"
       refY="0"
       orient="auto"
       inkscape:stockid="Arrow1Mend"
       inkscape:isstock="true">
      <path
         transform="matrix(-0.4,0,0,-0.4,-4,0)"
         style="fill:#000000;fill-opacity:1;fill-rule:evenodd;stroke:#000000;stroke-width:1pt;stroke-opacity:1"
         d="M 0,0 5,-5 -12.5,0 5,5 Z"
         id="path3569-3" />
    </marker>
    <clipPath
       clipPathUnits="userSpaceOnUse"
       id="clipPath5021">
      <path
         d="m 10.7,10.7 h 279 v 166.32 h -279 z"
         id="path5019" />
    </clipPath>
    <clipPath
       clipPathUnits="userSpaceOnUse"
       id="clipPath5068">
      <path
         d="m 10.7,10.7 h 279 v 166.32 h -279 z"
         id="path5066" />
    </clipPath>
    <clipPath
       clipPathUnits="userSpaceOnUse"
       id="clipPath5115">
      <path
         d="m 10.7,10.7 h 279 v 166.32 h -279 z"
         id="path5113" />
    </clipPath>
    <clipPath
       clipPathUnits="userSpaceOnUse"
       id="clipPath5162">
      <path
         d="m 10.7,10.7 h 279 v 166.32 h -279 z"
         id="path5160" />
    </clipPath>
    <clipPath
       clipPathUnits="userSpaceOnUse"
       id="clipPath6562">
      <path
         d="M 10.7,10.7 H 457.1 V 177.02 H 10.7 Z"
         id="path6560" />
    </clipPath>
    <clipPath
       clipPathUnits="userSpaceOnUse"
       id="clipPath6572">
      <path
         d="M 10.7,10.7 H 457.1 V 177.02 H 10.7 Z"
         id="path6570" />
    </clipPath>
    <clipPath
       clipPathUnits="userSpaceOnUse"
       id="clipPath6582">
      <path
         d="M 10.7,10.7 H 457.1 V 177.02 H 10.7 Z"
         id="path6580" />
    </clipPath>
    <clipPath
       clipPathUnits="userSpaceOnUse"
       id="clipPath6639">
      <path
         d="M 10.7,10.7 H 457.1 V 177.02 H 10.7 Z"
         id="path6637" />
    </clipPath>
    <clipPath
       clipPathUnits="userSpaceOnUse"
       id="clipPath6649">
      <path
         d="M 10.7,10.7 H 457.1 V 177.02 H 10.7 Z"
         id="path6647" />
    </clipPath>
    <clipPath
       clipPathUnits="userSpaceOnUse"
       id="clipPath6659">
      <path
         d="M 10.7,10.7 H 457.1 V 177.02 H 10.7 Z"
         id="path6657" />
    </clipPath>
    <clipPath
       clipPathUnits="userSpaceOnUse"
       id="clipPath7342">
      <path
         d="M 10.7,10.7 H 457.1 V 177.02 H 10.7 Z"
         id="path7340" />
    </clipPath>
    <marker
       style="overflow:visible"
       id="marker6750-6"
       refX="0"
       refY="0"
       orient="auto"
       inkscape:stockid="Arrow1Mend"
       inkscape:isstock="true">
      <path
         transform="matrix(-0.4,0,0,-0.4,-4,0)"
         style="fill:#000000;fill-opacity:1;fill-rule:evenodd;stroke:#000000;stroke-width:1pt;stroke-opacity:1"
         d="M 0,0 5,-5 -12.5,0 5,5 Z"
         id="path6748-5" />
    </marker>
    <marker
       style="overflow:visible"
       id="marker6750-6-1"
       refX="0"
       refY="0"
       orient="auto"
       inkscape:stockid="Arrow1Mend"
       inkscape:isstock="true">
      <path
         transform="matrix(-0.4,0,0,-0.4,-4,0)"
         style="fill:#000000;fill-opacity:1;fill-rule:evenodd;stroke:#000000;stroke-width:1pt;stroke-opacity:1"
         d="M 0,0 5,-5 -12.5,0 5,5 Z"
         id="path6748-5-3" />
    </marker>
  </defs>
  <sodipodi:namedview
     id="base"
     pagecolor="#ffffff"
     bordercolor="#666666"
     borderopacity="1.0"
     inkscape:pageopacity="0.0"
     inkscape:pageshadow="2"
     inkscape:zoom="2.0932954"
     inkscape:cx="298.89848"
     inkscape:cy="272.85866"
     inkscape:document-units="mm"
     inkscape:current-layer="g6627"
     inkscape:document-rotation="0"
     showgrid="false"
     fit-margin-top="0"
     fit-margin-left="0"
     fit-margin-right="0"
     fit-margin-bottom="0"
     inkscape:window-width="2400"
     inkscape:window-height="1271"
     inkscape:window-x="-9"
     inkscape:window-y="-9"
     inkscape:window-maximized="1" />
  <metadata
     id="metadata5">
    <rdf:RDF>
      <cc:Work
         rdf:about="">
        <dc:format>image/svg+xml</dc:format>
        <dc:type
           rdf:resource="http://purl.org/dc/dcmitype/StillImage" />
        <dc:title />
      </cc:Work>
    </rdf:RDF>
  </metadata>
  <g
     inkscape:label="Layer 1"
     inkscape:groupmode="layer"
     id="layer1"
     transform="translate(-41.154456,-12.380624)">
    <g
       id="g6627"
       inkscape:label="windowing"
       transform="matrix(0.35277777,0,0,-0.35687016,37.379734,81.557182)">
      <path
         d="M 10.7,13.946423 H 480.1201 V 193.84237 H 10.7 Z"
         style="fill:#e5e5e5;fill-opacity:1;fill-rule:nonzero;stroke:none;stroke-width:1.06649"
         id="path6631" />
      <g
         id="g6633">
        <g
           id="g6635"
           clip-path="url(#clipPath6639)">
          <path
             d="m 30.990909,99.269825 0.405818,9.350955 0.608728,18.58124 0.202909,1.61532 0.202909,-2.68229 0.405818,-15.58088 0.608727,-24.207265 0.202909,-3.060227 0.202909,-0.794337 0.202909,0.205807 0.20291,-0.112869 0.202909,-1.48801 0.405818,-7.031911 0.405818,-7.642768 0.202909,-1.806069 0.202909,0.259654 0.202909,2.005541 1.217455,17.443192 0.202909,0.797273 0.202909,-0.510115 0.405818,-1.505316 0.608727,-2.591984 0.608728,-5.529224 0.405818,-3.75506 0.202909,-0.767451 0.202909,0.694136 0.405818,5.080448 0.608728,9.666465 0.202909,1.665465 0.202909,0.644693 0.202909,-0.123686 0.405818,-0.814963 0.405818,-1.851186 0.405818,-4.672619 0.405819,-5.931953 0.202909,-1.146003 0.202909,0.98338 0.405818,7.935874 0.405818,8.643374 0.202909,1.597945 0.202909,-1.010884 0.405818,-7.535459 0.608728,-11.417141 0.608727,-7.531984 0.608727,-9.836502 0.202909,-1.047579 0.202909,1.546724 0.405819,10.376206 0.811636,25.127367 0.405818,5.132132 0.405818,2.136643 0.405819,1.271926 0.202909,0.31852 0.811636,0.43696 0.202909,0.23748 0.202909,-0.12523 0.202909,-0.73848 0.405818,-3.804657 0.608728,-6.417271 0.202909,-0.485084 0.202909,0.616805 0.608727,4.457539 0.405818,4.004904 0.405819,6.739654 0.405818,7.80562 0.202909,1.81789 0.202909,-0.84015 0.202909,-3.77167 1.014545,-28.771795 0.20291,-0.590539 0.811636,3.492393 0.202909,1.720471 0.202909,3.868084 0.405818,16.532276 0.405818,18.51758 0.20291,3.21868 0.202909,-3.84815 0.405818,-25.014272 0.405818,-27.649282 0.202909,-5.268332 0.202909,3.11338 0.811637,35.055806 0.202909,-3.45763 0.811636,-35.059126 0.202909,4.724147 0.811636,48.100869 0.20291,-0.12593 0.202909,-7.64717 0.608727,-33.621565 0.202909,-3.111293 0.202909,2.747267 0.405818,11.558364 0.202909,1.815648 0.202909,-4.074356 0.811637,-40.658727 0.202909,-0.96059 0.202909,5.369074 0.811636,33.929424 0.202909,-0.592006 0.811637,-17.751129 0.202909,0.761735 0.405818,9.260719 0.811636,21.772412 0.811637,17.653243 0.202909,0.72048 0.202909,-1.85358 0.405818,-9.64854 0.405818,-8.727347 0.202909,-0.390062 0.20291,2.751518 0.811636,19.851081 0.202909,1.56681 0.202909,-0.0173 0.608727,-2.57004 0.202909,0.60738 0.20291,1.33852 0.202909,2.24449 0.405818,-4.39311 0.202909,3.58317 0.202909,0.28916 0.202909,0.54172 0.405818,-5.11993 1.217455,-27.28626 0.608727,-7.264373 0.202909,-1.117494 0.202909,0.454105 0.202909,3.361909 0.405819,14.887207 0.405818,17.587586 0.202909,4.49879 0.202909,-0.56435 0.202909,-6.41565 0.608727,-30.63874 0.202909,-4.499181 0.202909,0.445685 0.608728,11.262167 0.202909,-0.440354 0.608727,-11.964725 0.202909,0.992805 0.202909,6.725286 0.811637,44.581507 0.202909,1.69559 0.202909,-3.5946 0.608727,-17.95902 0.202909,-2.27586 0.202909,-0.54132 0.202909,-0.17846 0.202909,-1.44684 0.608728,-9.096703 0.202909,-0.04635 0.405818,7.328883 0.202909,3.5073 0.202909,-0.40366 0.202909,-5.89696 0.811637,-42.711081 0.202909,1.55275 0.405818,20.857789 0.405818,18.596842 0.202909,-0.148872 0.405818,-16.701928 0.405819,-13.030537 0.202909,2.319043 0.811636,27.492294 0.202909,-2.468834 0.608727,-17.55583 0.202909,-0.378549 0.20291,3.582472 0.405818,10.781563 0.202909,2.512799 0.202909,-0.961131 0.811636,-13.510753 0.405818,-0.466929 0.20291,-1.202012 0.405818,-6.60755 0.202909,-3.37651 0.202909,-1.390283 0.202909,1.515359 0.608727,10.986522 0.202909,-1.050051 0.202909,-5.402757 0.608728,-24.426972 0.202909,-2.504996 0.202909,2.253607 0.608727,15.444063 0.202909,0.673354 0.202909,-2.648767 0.405819,-7.947771 0.202909,-1.431536 0.202909,1.475649 0.608727,8.446839 0.20291,-1.199926 0.81164,-14.856769 0.20291,0.11905 0.40581,2.844377 0.20291,-0.156441 0.20291,-2.17867 0.40582,-6.809572 0.20291,-1.60706 0.20291,1.390514 0.40582,11.563694 0.60872,21.620914 0.40582,7.186653 0.20291,1.061562 0.20291,-0.929919 0.20291,-3.189785 0.40582,-13.314989 0.40582,-15.057169 0.2029,-2.919855 0.20291,2.709876 0.40582,20.516554 0.40582,24.946667 0.20291,7.525878 0.20291,3.05551 0.20291,0.15127 0.20291,-0.0659 0.20291,2.24843 0.40581,14.26399 0.40582,13.52219 0.20291,-1.19792 0.20291,-7.99172 0.81164,-51.340943 0.2029,-2.275626 0.20291,3.165759 0.81164,22.222577 0.40582,6.291653 0.40582,11.43135 0.40582,12.87572 0.2029,3.44411 0.20291,1.01428 0.20291,-0.48733 0.20291,-0.15837 0.20291,1.47704 0.40582,10.09508 0.40582,8.83682 0.2029,-0.70009 0.20292,-5.5602 0.40581,-15.40288 0.20291,-4.37573 0.20291,-0.23516 0.40582,8.43671 0.20291,4.4234 0.20291,1.96197 0.20291,-1.65574 0.60872,-14.06683 0.20291,-1.2924 0.20291,1.38063 0.40582,3.50807 0.20291,-1.52988 0.40582,-11.7396 0.60873,-19.096453 0.81163,-13.588858 0.60873,-14.590857 0.20291,-0.412156 0.20291,3.092598 0.60872,13.937743 0.20291,-0.06041 0.20291,-3.592824 0.81164,-20.517326 0.20291,-0.919335 0.20291,0.619971 0.60872,4.381368 0.20291,2.338897 0.40582,8.417249 0.40582,9.656035 0.20291,2.203469 0.20291,-0.468475 0.40582,-4.575664 0.20291,0.05223 0.2029,3.934447 0.81164,33.665441 0.20291,0.49837 0.20291,-5.58059 0.81164,-34.358115 0.2029,-0.956959 0.20291,0.876691 0.20291,-0.243585 0.20291,-4.068794 0.40582,-21.453579 0.40582,-25.172253 0.20291,-6.102147 0.2029,0.464767 0.40582,14.962222 0.40582,15.46299 0.20291,3.218059 0.20291,0.614873 0.20291,-0.138827 0.20291,1.254469 0.20291,3.905475 1.01454,31.288228 0.20291,0.852278 0.20291,-0.622212 0.40582,-1.572296 0.20291,-0.31636 0.20291,-0.71569 0.20291,-2.030882 0.40581,-9.254385 0.40582,-10.413134 0.20291,-1.820439 0.20291,1.752531 0.40582,12.397586 0.40582,13.71826 0.40581,5.902058 0.40582,0.56998 0.20291,1.0893 0.40582,5.86258 0.40582,5.20267 0.20291,-0.10028 0.40582,-5.96572 0.60872,-10.37651 0.40582,-4.658249 0.40582,-9.127919 0.60873,-20.338789 0.20291,-3.005917 0.2029,0.882563 0.40582,10.462268 0.20291,5.391554 0.20291,2.194431 0.20291,-2.483442 0.40582,-16.690109 0.40582,-17.165924 0.20291,-3.241468 0.2029,0.834897 0.40582,5.304024 0.20291,-0.722103 0.20291,-4.986816 0.60873,-23.578944 0.20291,-1.261575 0.20291,5.301629 0.81163,43.63158 0.20291,1.812019 0.20291,-3.209717 0.40582,-9.114632 0.20291,1.033365 0.20291,7.100745 0.81163,47.928039 0.20291,2.52709 0.20291,-3.44256 1.01455,-38.395075 0.40582,-5.074808 0.2029,-0.788929 0.20291,0.5156 0.20291,2.493871 0.40582,11.999954 0.60873,22.759657 0.20291,3.15594 0.20291,-0.26892 0.40581,-7.27658 0.40582,-7.36712 0.20291,-1.198227 0.20291,0.767453 0.20291,2.47224 0.40582,10.392424 1.01454,36.95705 0.20291,1.63681 0.20291,-1.87877 0.81164,-19.37827 0.20291,-0.006 0.81163,8.05871 0.20291,-1.39067 0.40582,-4.71272 0.20291,-0.16293 0.20291,1.17104 0.20291,2.49711 0.20291,-1.64684 0.40582,-13.23797 0.60872,-19.566392 0.20291,-1.878688 0.20291,4.024834 0.81164,27.165126 0.20291,-2.53598 0.81163,-24.602879 0.20291,0.74528 0.60873,10.074679 0.20291,-0.47412 0.40582,-9.659042 0.40581,-8.814648 0.20291,-1.407124 0.60873,2.634242 0.20291,-1.035835 0.81164,-8.981985 0.20291,0.9755 0.40581,3.956774 0.20291,-0.08668 0.20291,-2.155108 0.60873,-12.938139 0.20291,-1.82685 0.20291,0.673354 0.40582,7.077647 0.81163,17.054985 0.40582,5.299775 0.20291,0.44074 0.20291,-2.087123 0.20291,-5.482947 1.01454,-46.572527 0.20291,-2.13278 0.20291,1.112086 0.60873,7.085295 0.20291,0.347571 0.20291,0.121213 0.20291,1.244888 0.2029,3.736133 0.40582,14.800218 0.40582,15.195996 0.20291,3.38864 0.20291,-0.184177 0.60873,-7.742889 0.20291,0.230683 0.40581,5.686978 0.40582,5.130277 0.20291,0.297587 0.20291,-0.42838 0.20291,0.680155 0.20291,3.09422 0.40582,14.595727 0.60872,23.42458 0.20291,3.62543 0.40582,3.87009 0.40582,3.29006 0.40582,16.78637 0.20291,5.71294 0.20291,-0.42939 0.2029,-5.90074 1.01455,-49.10487 0.20291,-0.35885 0.20291,1.25254 0.20291,0.47743 0.20291,-3.03728 0.40581,-16.611923 0.40582,-16.999902 0.20291,-3.301727 0.20291,1.661834 0.81164,19.399134 0.20291,-1.071991 0.40581,-10.999809 0.40582,-12.131827 0.20291,-3.110599 0.20291,-1.335741 0.20291,0.200941 0.20291,1.450464 0.20291,2.670399 0.40582,10.605963 1.42036,50.879264 0.20291,0.92126 0.20291,-0.0589 0.40582,-1.00532 0.20291,-1.11371 0.2029,-2.99858 0.20291,-5.6458 0.40582,-20.59983 0.60873,-36.070472 0.20291,-6.07897 0.20291,-1.105289 0.20291,3.571193 1.01454,31.954167 0.20291,1.160681 0.20291,-0.255947 0.40582,-1.292014 0.40582,0.528116 0.20291,-0.241732 0.2029,-2.121809 0.20291,-4.70159 0.40582,-17.755997 0.60873,-27.814686 0.20291,-2.694966 0.20291,1.789769 0.40582,13.542505 0.60872,20.704128 0.40582,4.537963 0.20291,1.560167 0.20291,2.569117 0.40582,9.428828 0.40582,9.999658 0.2029,2.28227 0.20291,-0.41478 0.40582,-6.994748 0.60873,-11.408103 0.40582,-2.860987 0.40582,-2.321051 0.60872,-4.487361 0.20291,-0.261817 0.20291,0.772627 0.60873,4.282635 0.20291,0.631947 0.20291,-0.08382 0.40581,-1.324306 0.40582,-2.270913 0.20291,-1.845702 0.40582,-7.25371 0.60873,-15.183249 0.20291,-2.734134 0.20291,-0.256873 0.2029,2.378452 1.01455,19.031633 0.20291,-0.331501 0.60873,-1.780576 0.40582,0.925516 0.40581,1.197532 0.20291,-0.494278 0.20291,-1.206107 0.40582,-5.865824 0.81164,-15.471023 0.2029,-1.954399 0.20291,-0.366962 0.20291,0.962598 0.60873,4.828288 0.20291,-0.140913 0.20291,-1.600571 0.81163,-10.185695 0.20291,-0.01661 0.20291,1.61324 0.81164,11.569565 0.40582,9.325073 0.40582,18.292457 0.60872,32.84399 0.20291,5.85083 0.20291,1.35707 0.20291,-2.63857 0.60873,-14.93681 0.20291,-1.12414 0.20291,2.1847 1.01454,22.04219 0.20291,0.0685 0.60873,-2.83982 0.20291,0.20141 0.40581,3.50413 0.60873,6.97042 0.20291,0.73601 0.20291,-1.01946 0.20291,-3.37072 0.40582,-13.30162 0.60872,-23.156898 0.20291,-2.605119 0.20291,1.78382 0.40582,14.236797 0.40582,15.74342 0.20291,2.87103 0.20291,-2.41074 0.40582,-18.88137 0.60872,-32.627678 0.20291,-3.412124 0.20291,1.908818 0.40582,16.123751 0.60873,31.299433 0.40581,9.28436 0.20291,-0.0233 0.40582,-4.61236 1.01455,-11.7997 0.40582,-4.54963 0.81163,-14.350979 0.20291,-1.17281 0.20291,0.480373 0.40582,4.545456 0.81163,11.18081 0.20291,1.45997 0.20291,0.26537 0.20291,-1.75029 0.20291,-4.51656 0.40582,-16.996424 0.40582,-19.148597 0.20291,-5.424774 0.20291,-0.247681 0.2029,4.963562 1.01455,40.849314 0.20291,-1.81155 0.60873,-12.479787 0.20291,0.164167 0.40581,7.68865 0.20291,3.84367 0.20291,1.40566 0.20291,-2.43801 0.40582,-13.686896 0.40582,-14.167731 0.20291,-3.021369 0.20291,0.382181 0.40581,6.290263 0.40582,5.80116 0.40582,2.021148 0.81164,2.577384 0.20291,-0.496905 0.2029,-1.840448 1.01455,-13.73657 0.20291,0.343786 0.40582,1.895143 0.20291,0.03229 0.20291,-0.998599 0.60872,-4.401995 0.20291,0.702635 0.20291,2.623815 0.60873,14.583518 0.40582,7.94128 1.42036,16.62436 0.20291,0.52063 0.20291,-2.42805 0.20291,-5.8255 0.60872,-32.239469 0.40582,-17.56479 0.20291,-2.655258 0.20291,2.034823 0.40582,13.889689 0.60873,22.58189 0.60872,12.466035 0.40582,7.12361 0.20291,1.87104 0.20291,-0.91686 0.20291,-4.21195 0.81164,-29.994435 0.2029,-1.850337 0.20291,1.816808 0.40582,7.277274 0.20291,0.896236 0.20291,-2.740547 0.60873,-17.445045 0.20291,-1.068437 0.20291,3.503517 0.60872,20.703046 0.20291,1.499136 0.20291,-3.309839 0.60873,-18.971375 0.20291,-0.776877 0.20291,3.588112 0.60872,15.236014 0.20291,-0.738018 0.60873,-11.927025 0.20291,0.756637 0.20291,5.064379 0.60873,22.061116 0.2029,1.43524 0.20291,-2.874428 0.40582,-10.445735 0.20291,-2.101725 0.20291,2.594612 0.40582,16.709036 0.40582,17.09392 0.20291,4.18151 0.2029,1.27911 1.01455,-5.66264 0.20291,-0.35993 0.20291,-1.38094 0.40582,-7.16146 0.60873,-12.17996 0.81163,-8.625763 0.40582,-2.069972 0.60873,0.422894 0.2029,-1.332032 0.40582,-6.764532 0.40582,-5.673612 0.20291,1.499289 0.40582,13.931021 0.40582,16.273937 0.20291,3.30621 0.2029,-0.86371 0.81164,-15.452719 0.20291,2.077776 0.60873,13.242753 0.20291,1.09347 0.20291,-1.21576 0.40581,-4.25251 0.20291,-0.50393 0.40582,2.0203 0.20291,-0.0817 0.20291,-2.30653 0.81164,-15.695217 0.2029,2.171253 0.81164,20.147274 0.20291,-0.0644 0.40582,-2.76002 0.20291,1.79773 0.40582,13.36227 0.40581,14.91378 0.20291,1.59377 0.20291,-4.00621 0.60873,-23.08281 0.20291,-2.67535 0.20291,1.73492 0.60872,11.50591 0.20291,-1.70757 0.40582,-13.53223 0.81164,-30.724731 0.60873,-26.780163 0.40581,-16.310863 0.20291,-2.303746 0.20291,2.697206 0.81164,25.244563 0.20291,-0.562957 0.81163,-13.122393 0.20291,1.423116 0.60873,8.407825 0.20291,0.382798 0.60873,-2.19698 0.20291,0.897781 0.40581,3.351943 0.20291,0.456038 0.20291,-0.926829 0.40582,-3.750889 0.20291,-0.519849 0.20291,1.224184 0.40582,4.805574 0.20291,0.681854 0.2029,-1.960193 0.60873,-12.062685 0.20291,0.845556 0.20291,5.726764 0.81164,36.716171 0.20291,0.502157 0.2029,-4.432433 0.60873,-20.731862 0.20291,-2.924801 0.20291,-0.268461 0.40582,2.252295 0.20291,0.101668 0.40582,-1.774086 0.2029,0.09958 0.20291,1.821133 0.81164,12.926165 0.20291,0.106149 0.40582,-2.214517 0.20291,-0.05786 0.20291,1.34053 0.40581,3.889638 0.20291,-0.492655 0.20291,-3.629675 0.40582,-15.642993 0.40582,-17.106206 0.20291,-4.781625 0.20291,-0.994505 0.20291,2.449836 0.40581,10.612684 1.42037,42.980705 0.20291,0.727125 0.20291,-2.132007 0.60872,-11.695878 0.20291,-0.384499 0.20291,2.92256 1.01455,27.515083 0.20291,0.11681 0.2029,-2.06278 0.40582,-8.28167 1.01455,-25.341749 0.20291,-2.441259 0.20291,-0.455419 0.20291,1.433622 0.81163,11.339809 0.20291,0.06358 0.20291,-1.672109 0.60873,-10.35782 0.40582,-6.031072 0.20291,-1.70162 0.20291,-0.547738 0.2029,0.890288 0.20291,2.219229 0.40582,8.02827 1.21745,31.217538 0.60873,26.03743 0.60873,25.29022 0.40582,7.86117 0.20291,0.90304 0.20291,0.0702 0.2029,-0.74358 0.60873,-5.38043 0.20291,-2.70254 0.20291,-4.87302 0.20291,-11.42896 0.60873,-12.9148 0.81163,-22.4786 0.60873,-5.92632 0.20291,-1.89468 0.20291,-3.119712 0.40582,-15.584357 0.60872,-31.389432 0.20291,-2.713893 0.20291,2.168008 0.40582,16.315036 0.40582,16.269223 0.20291,3.28929 0.20291,-0.931465 0.40581,-6.09867 0.20291,-0.44947 0.20291,1.977112 0.40582,8.30523 0.20291,1.471863 0.20291,-2.090213 0.40582,-14.397797 0.60872,-24.651167 0.20291,-2.807449 0.20291,1.247978 0.40582,11.235979 0.60873,26.827983 0.60873,27.254583 0.2029,4.37156 0.20291,0.68386 0.20291,-2.7098 1.01455,-28.41117 0.20291,-1.020462 0.40582,0.572382 0.2029,-0.546966 0.40582,-3.606962 0.40582,-3.931665 0.20291,-1.102662 0.20291,-0.133574 0.20291,0.551756 0.40582,3.339428 0.40581,5.781925 0.60873,13.93218 0.60873,13.23395 0.40582,4.405 0.20291,0.62708 0.20291,-0.83211 0.40581,-14.86898 0.20291,-3.952288 0.60873,-18.6768 0.20291,-1.060789 0.20291,1.960733 0.81163,26.807514 0.20291,1.53297 0.20291,-3.21605 0.81164,-24.869183 0.20291,-0.273405 0.60873,7.738717 0.2029,-0.38079 0.20291,-3.569647 0.81164,-23.809937 0.20291,1.598717 1.01454,50.007978 0.20291,4.46867 0.20291,-3.09631 0.20291,0.43139 0.40582,-5.22321 0.20291,-1.74118 0.20291,0.85916 0.40582,9.64614 0.40581,8.93347 0.20291,-1.23199 0.20291,-5.00381 0.60873,-25.73907 0.20291,-3.706775 0.20291,2.271145 0.40582,14.02357 0.20291,6.63019 0.2029,2.68863 0.20291,-2.39244 0.81164,-30.266835 0.20291,0.464072 0.20291,5.105787 0.60873,25.655406 0.20291,3.74239 0.2029,-1.17235 0.40582,-10.2067 0.40582,-9.852885 0.40582,-4.032482 0.20291,-2.138576 0.20291,-3.569725 0.40581,-14.08839 0.60873,-23.223184 0.20291,-1.011269 0.20291,3.894892 0.40582,19.738131 0.60873,30.201478 0.2029,3.92471 0.20291,0.2894 0.60873,-6.27983 0.20291,0.0762 0.60873,5.49863 0.20291,-0.22303 0.20291,-2.32106 0.81163,-16.497816 0.20291,-1.439802 0.20291,-0.345022 0.20291,-0.0031 0.20291,-0.692824 0.40582,-4.62835 0.40581,-4.453756 0.20291,0.233774 0.40582,5.306805 0.20291,2.830549 0.20291,1.235232 0.20291,-1.181771 0.40582,-9.003461 0.60872,-15.89106 0.81164,-12.617994 0.20291,-2.274389 0.20291,-0.413546 0.20291,2.618792 0.40582,15.150646 0.60872,28.222438 0.20291,3.972843 0.20291,0.269928 0.40582,-5.799074 0.20291,-2.797639 0.20291,-1.20796 0.20291,0.463762 0.40582,2.410282 0.2029,-0.06567 0.20291,-1.480749 0.60873,-6.51461 0.20291,0.176759 0.20291,1.888037 0.40582,7.660227 0.81163,16.440889 0.20291,2.0437 0.20291,0.64756 0.20291,-1.33165 0.20291,-3.54593 0.40582,-13.150285 0.60873,-22.614105 0.40582,-8.143149 0.2029,-1.75145 0.20291,-0.583739 0.20291,0.398558 0.20291,1.308625 0.40582,5.592881 0.40582,6.751244 0.20291,1.449073 0.20291,-1.062798 0.40581,-9.211432 0.40582,-10.130535 0.20291,-1.404729 0.20291,2.00562 1.01454,23.062957 0.20292,-0.478055 0.40581,-2.57074 0.20291,0.06883 0.40582,3.731343 0.40582,3.359901 0.20291,-0.112174 0.81163,-5.468579 0.20291,-0.07432 0.20291,0.30647 0.40582,1.063879 0.20291,1.192123 0.40582,5.183816 0.81163,17.01172 0.20291,-0.11171 0.20291,-2.862068 0.60873,-12.750254 0.20291,-0.774019 0.20291,2.303979 0.81163,15.309402 0.20291,0.7921 0.20291,-0.0288 0.20291,0.12979 0.20291,1.48106 0.40582,6.64834 0.40582,7.27812 0.2029,1.93447 0.20291,0.35877 0.20291,-1.0424 0.40582,-5.77551 0.40582,-10.69095 0.60873,-19.640322 0.20291,-3.079156 0.2029,0.942203 0.20291,5.005434 0.81164,29.432331 0.20291,0.55098 0.20291,-3.10929 0.60873,-13.109561 0.60872,-5.556881 0.40582,-10.114003 0.40582,-11.634846 0.20291,-0.876767 0.20291,4.622557 1.01454,43.618291 0.20291,-4.07003 0.60873,-20.566689 0.20291,0.564734 0.20291,6.112885 0.60872,26.52931 0.20291,2.08489 0.20291,-3.25422 0.60873,-25.7984 1.21745,-44.2728 0.40582,-10.917223 0.20291,0.672429 0.20291,5.415967 0.81164,31.534594 0.20291,-0.730447 0.40581,-13.4875 0.40582,-15.543257 0.20291,-4.006217 0.20291,-1.073691 0.40582,1.846242 0.20291,0.05663 0.20291,-1.357835 0.40582,-3.779628 0.2029,0.70055 0.20291,4.260385 0.40582,19.024449 0.60873,30.623982 0.20291,3.22494 0.20291,-1.17204 0.40582,-10.662431 0.60872,-16.225883 0.60873,-13.273968 0.60873,-14.113575 0.20291,0.282909 0.20291,4.438844 1.01454,39.512649 0.20291,-0.344867 0.81164,-11.608579 0.20291,1.692813 0.81163,12.24663 0.40582,2.010099 0.20291,2.2054 0.40582,9.987149 0.60872,16.26675 0.20291,1.19089 0.20291,-2.13935 0.40582,-10.39459 0.81164,-24.473482 0.20291,-4.046157 0.20291,-1.814489 0.2029,1.41678 0.20291,5.444706 0.40582,22.121832 0.60873,37.26437 0.20291,3.98536 0.20291,-1.85459 0.40582,-14.97574 0.60872,-22.89578 0.40582,-6.92329 0.81164,-5.14742 0.81163,26.17371 0.20291,0.79642 0.20291,-3.48158 0.60873,-19.26896 0.20291,-1.75732 0.20291,2.66986 0.60872,13.68597 0.20291,-2.57948 0.40582,-19.085856 0.40582,-18.951365 0.20291,-2.081406 0.20291,4.353555 0.60873,27.182192 0.2029,2.92975 0.20291,-3.24982 0.40582,-20.075109 0.60873,-32.772994 0.40582,-12.396581 0.40582,-7.247684 0.2029,-1.620889 0.20291,0.448698 0.20291,3.375197 0.40582,14.016542 0.60873,21.863109 0.20291,3.028321 0.20291,1.052369 0.20291,-0.484234 0.40581,-2.875203 0.40582,-5.33933 0.40582,-9.540538 0.60873,-16.14971 0.20291,-1.791854 0.20291,1.352196 0.40581,11.066172 0.60873,29.896014 1.01455,55.500428 0.20291,2.15217 0.2029,-3.63732 0.40582,-21.35052 0.60873,-34.784638 0.20291,-4.132684 0.20291,0.0241 0.81163,9.767127 0.20291,-0.29666 0.20291,-0.639131 0.20291,0.129403 0.20291,1.72696 0.40582,9.112467 0.40582,10.273686 0.20291,2.21568 0.20291,-0.72604 0.2029,-3.76318 1.01455,-29.250854 0.20291,0.06474 0.20291,3.321968 0.40582,14.02535 0.60872,22.420276 0.40582,6.59735 0.20291,1.98538 0.40582,-8.81156 0.81164,25.38571 0.2029,3.61747 0.20291,1.1375 0.20291,-0.66076 0.60873,-4.79986 0.40582,1.15983 0.20291,0.64639 0.20291,-1.28429 0.40581,-7.16664 0.40582,-8.88912 0.20291,-2.34632 0.20291,-0.0124 0.20291,2.0339 0.40582,5.99484 0.20291,0.82083 0.20291,-2.2835 0.40581,-14.11311 0.60873,-22.36813 0.20291,-3.044855 0.20291,-0.173515 0.20291,2.189332 0.60873,11.558208 0.20291,1.14608 0.2029,-1.27927 0.40582,-9.86292 0.81164,-25.3246 0.60873,-10.39861 1.01454,-14.900573 0.20291,2.021534 0.40582,10.79686 0.40582,11.029243 0.20291,2.661129 0.20291,-0.103677 0.40581,-3.501817 0.20291,-0.346025 0.20291,1.990321 0.81164,14.125782 0.20291,-1.630083 0.60872,-10.175883 0.20291,1.533822 0.40582,14.109403 0.40582,16.593544 v 0"
             style="fill:none;stroke:#e24a33;stroke-width:1.5;stroke-linecap:square;stroke-linejoin:round;stroke-miterlimit:10;stroke-dasharray:none;stroke-opacity:0.5"
             id="path6641" />
        </g>
      </g>
      <g
         id="g6643">
        <g
           id="g6645"
           clip-path="url(#clipPath6649)">
          <path
             d="m 132.64836,92.9774 0.20291,3.314783 0.20291,0.852278 0.20291,-0.622212 0.40582,-1.572296 0.20291,-0.31636 0.20291,-0.71569 0.20291,-2.030882 0.40581,-9.254385 0.40582,-10.413134 0.20291,-1.820439 0.20291,1.752531 0.40582,12.397586 0.40582,13.71826 0.40581,5.90206 0.40582,0.56998 0.20291,1.0893 0.40582,5.86258 0.40582,5.20267 0.20291,-0.10028 0.40582,-5.96572 0.60872,-10.37651 0.40582,-4.658251 0.40582,-9.127919 0.60873,-20.338789 0.20291,-3.005917 0.2029,0.882563 0.40582,10.462268 0.20291,5.391554 0.20291,2.194431 0.20291,-2.483442 0.40582,-16.690109 0.40582,-17.165924 0.20291,-3.241468 0.2029,0.834897 0.40582,5.304024 0.20291,-0.722103 0.20291,-4.986816 0.60873,-23.578944 0.20291,-1.261575 0.20291,5.301629 0.81163,43.63158 0.20291,1.812019 0.20291,-3.209717 0.40582,-9.114632 0.20291,1.033365 0.20291,7.100745 0.81163,47.928041 0.20291,2.52709 0.20291,-3.44256 1.01455,-38.395077 0.40582,-5.074808 0.2029,-0.788929 0.20291,0.5156 0.20291,2.493871 0.40582,11.999954 0.60873,22.759659 0.20291,3.15594 0.20291,-0.26892 0.40581,-7.27658 0.40582,-7.367122 0.20291,-1.198227 0.20291,0.767453 0.20291,2.47224 0.40582,10.392426 1.01454,36.95705 0.20291,1.63681 0.20291,-1.87877 0.81164,-19.37827 0.20291,-0.006 0.81163,8.05871 0.20291,-1.39067 0.40582,-4.71272 0.20291,-0.16293 0.20291,1.17104 0.20291,2.49711 0.20291,-1.64684 0.40582,-13.23797 0.60872,-19.566394 0.20291,-1.878688 0.20291,4.024834 0.81164,27.165128 0.20291,-2.53598 0.81163,-24.602881 0.20291,0.74528 0.60873,10.074681 0.20291,-0.47412 0.40582,-9.659044 0.40581,-8.814648 0.20291,-1.407124 0.60873,2.634242 0.20291,-1.035835 0.81164,-8.981985 0.20291,0.9755 0.40581,3.956774 0.20291,-0.08668 0.20291,-2.155108 0.60873,-12.938139 0.20291,-1.82685 0.20291,0.673354 0.40582,7.077647 0.81163,17.054985 0.40582,5.299775 0.20291,0.44074 0.20291,-2.087123 0.20291,-5.482947 1.01454,-46.572527 0.20291,-2.13278 0.20291,1.112086 0.60873,7.085295 0.20291,0.347571 0.20291,0.121213 0.20291,1.244888 0.2029,3.736133 0.40582,14.800218 0.40582,15.195996 0.20291,3.38864 0.20291,-0.184177 0.60873,-7.742889 0.20291,0.230683 0.40581,5.686978 0.40582,5.130277 0.20291,0.297587 0.20291,-0.42838 0.20291,0.680155 0.20291,3.09422 0.40582,14.595729 0.60872,23.42458 0.20291,3.62543 0.40582,3.87009 0.40582,3.29006 0.40582,16.78637 0.20291,5.71294 0.20291,-0.42939 0.2029,-5.90074 1.01455,-49.10487 0.20291,-0.35885 0.20291,1.25254 0.20291,0.47743 0.20291,-3.03728 0.40581,-16.611925 0.40582,-16.999902 0.20291,-3.301727 0.20291,1.661834 0.81164,19.399134 0.20291,-1.071991 0.40581,-10.999809 0.40582,-12.131827 0.20291,-3.110599 0.20291,-1.335741 0.20291,0.200941 0.20291,1.450464 0.20291,2.670399 0.40582,10.605963 1.42036,50.879266 0.20291,0.92126 0.20291,-0.0589 0.40582,-1.00532 0.20291,-1.11371 0.2029,-2.99858 0.20291,-5.6458 0.40582,-20.59983 0.60873,-36.070474 0.20291,-6.07897 0.20291,-1.105289 0.20291,3.571193 1.01454,31.954167 0.20291,1.160681 0.20291,-0.255947 0.40582,-1.292014 0.40582,0.528116 0.20291,-0.241732 0.2029,-2.121809 0.20291,-4.70159 0.40582,-17.755997 0.60873,-27.814686 0.20291,-2.694966 0.20291,1.789769 0.40582,13.542505 0.60872,20.704128 0.40582,4.537963 0.20291,1.560167 0.20291,2.569117 0.40582,9.428828 0.40582,9.99966 0.2029,2.28227 0.20291,-0.41478 0.40582,-6.99475 0.60873,-11.408103 0.40582,-2.860987 0.40582,-2.321051 0.60872,-4.487361 0.20291,-0.261817 0.20291,0.772627 0.60873,4.282635 0.20291,0.631947 0.20291,-0.08382 0.40581,-1.324306 0.40582,-2.270913 0.20291,-1.845702 0.40582,-7.25371 0.60873,-15.183249 0.20291,-2.734134 0.20291,-0.256873 0.2029,2.378452 1.01455,19.031633 0.20291,-0.331501 0.60873,-1.780576 0.40582,0.925516 0.40581,1.197532 0.20291,-0.494278 0.20291,-1.206107 0.40582,-5.865824 0.81164,-15.471023 0.2029,-1.954399 0.20291,-0.366962 0.20291,0.962598 0.60873,4.828288 0.20291,-0.140913 0.20291,-1.600571 0.81163,-10.185695 0.20291,-0.01661 0.20291,1.61324 0.81164,11.569565 0.40582,9.325073 0.40582,18.292457 0.60872,32.843992 0.20291,5.85083 0.20291,1.35707 0.20291,-2.63857 0.60873,-14.93681 0.20291,-1.12414 0.20291,2.1847 1.01454,22.04219 0.20291,0.0685 0.60873,-2.83982 0.20291,0.20141 0.40581,3.50413 0.60873,6.97042 0.20291,0.73601 0.20291,-1.01946 0.20291,-3.37072 0.40582,-13.30162 0.60872,-23.1569 0.20291,-2.605119 0.20291,1.78382 0.40582,14.236799 0.40582,15.74342 0.20291,2.87103 0.20291,-2.41074 0.40582,-18.88137 0.60872,-32.62768 0.20291,-3.412124 0.20291,1.908818 0.40582,16.123751 0.60873,31.299435 0.40581,9.28436 0.20291,-0.0233 0.40582,-4.61236 1.01455,-11.7997 0.40582,-4.54963 0.81163,-14.350981 0.20291,-1.17281 0.20291,0.480373 0.40582,4.545456 0.81163,11.180812 0.20291,1.45997 0.20291,0.26537 0.20291,-1.75029 0.20291,-4.51656 0.40582,-16.996426 0.40582,-19.148597 0.20291,-5.424774 0.20291,-0.247681 0.2029,4.963562 1.01455,40.849316 0.20291,-1.81155 0.60873,-12.479789 0.20291,0.164167 0.40581,7.688652 0.20291,3.84367 0.20291,1.40566 0.20291,-2.43801 0.40582,-13.686898 0.40582,-14.167731 0.20291,-3.021369 0.20291,0.382181 0.40581,6.290263 0.40582,5.80116 0.40582,2.021148 0.81164,2.577384 0.20291,-0.496905 0.2029,-1.840448 1.01455,-13.73657 0.20291,0.343786 0.40582,1.895143 0.20291,0.03229 0.20291,-0.998599 0.60872,-4.401995 0.20291,0.702635 0.20291,2.623815 0.60873,14.583518 0.40582,7.94128 1.42036,16.624362 0.20291,0.52063 0.20291,-2.42805 0.20291,-5.8255 0.60872,-32.239471 0.40582,-17.56479 0.20291,-2.655258 0.20291,2.034823 0.40582,13.889689 0.60873,22.58189 0.60872,12.466037 0.40582,7.12361 0.20291,1.87104 0.20291,-0.91686 0.20291,-4.21195 0.81164,-29.994437 0.2029,-1.850337 0.20291,1.816808 0.40582,7.277274 0.20291,0.896236 0.20291,-2.740547 0.60873,-17.445045 0.20291,-1.068437 0.20291,3.503517 0.60872,20.703046 0.20291,1.499136 0.20291,-3.309839 0.60873,-18.971375 0.20291,-0.776877 0.20291,3.588112 0.60872,15.236014 0.20291,-0.738018 0.60873,-11.927025 0.20291,0.756637 0.20291,5.064379 0.60873,22.061118 0.2029,1.43524 0.20291,-2.87443 0.40582,-10.445735 0.20291,-2.101725 0.20291,2.594612 0.40582,16.709038 0.40582,17.09392 0.20291,4.18151 0.2029,1.27911 1.01455,-5.66264 0.20291,-0.35993 0.20291,-1.38094 0.40582,-7.16146 0.60873,-12.17996 0.81163,-8.625765 0.40582,-2.069972 0.60873,0.422894 0.2029,-1.332032 0.40582,-6.764532 0.40582,-5.673612 0.20291,1.499289 0.40582,13.931021 0.40582,16.273939 0.20291,3.30621 0.2029,-0.86371 0.81164,-15.452721 0.20291,2.077776 0.60873,13.242755 0.20291,1.09347 0.20291,-1.21576 0.40581,-4.25251 0.20291,-0.50393 0.40582,2.0203 0.20291,-0.0817 0.20291,-2.30653 0.81164,-15.695219 0.2029,2.171253 0.81164,20.147276 0.20291,-0.0644 0.40582,-2.76002 0.20291,1.79773 0.40582,13.36227 0.40581,14.91378 0.20291,1.59377 0.20291,-4.00621 0.60873,-23.08281 0.20291,-2.67535 0.20291,1.73492 0.60872,11.50591 0.20291,-1.70757 0.40582,-13.53223 0.81164,-30.724733 0.60873,-26.780163 0.40581,-16.310863 0.20291,-2.303746 0.20291,2.697206 0.81164,25.244563 0.20291,-0.562957 0.81163,-13.122393 0.20291,1.423116 0.60873,8.407825 0.20291,0.382798 0.60873,-2.19698 0.20291,0.897781 0.40581,3.351943 0.20291,0.456038 0.20291,-0.926829 0.40582,-3.750889 0.20291,-0.519849 0.20291,1.224184 0.40582,4.805574 0.20291,0.681854 0.2029,-1.960193 0.60873,-12.062685 0.20291,0.845556 0.20291,5.726764 0.81164,36.716171 0.20291,0.502157 0.2029,-4.432433 0.60873,-20.731862 0.20291,-2.924801 0.20291,-0.268461 0.40582,2.252295 0.20291,0.101668 0.40582,-1.774086 0.2029,0.09958 0.20291,1.821133 0.81164,12.926165 0.20291,0.106149 0.40582,-2.214517 0.20291,-0.05786 0.20291,1.34053 0.40581,3.889638 0.20291,-0.492655 0.20291,-3.629675 0.40582,-15.642993 0.40582,-17.106206 0.20291,-4.781625 0.20291,-0.994505 0.20291,2.449836 0.40581,10.612684 1.42037,42.980705 0.20291,0.727125 0.20291,-2.132007 0.60872,-11.695878 0.20291,-0.384499 0.20291,2.92256 1.01455,27.515085 0.20291,0.11681 0.2029,-2.06278 0.40582,-8.28167 1.01455,-25.341751 0.20291,-2.441259 0.20291,-0.455419 0.20291,1.433622 0.81163,11.339809 0.20291,0.06358 0.20291,-1.672109 0.60873,-10.35782 0.40582,-6.031072 0.20291,-1.70162 0.20291,-0.547738 0.2029,0.890288 0.20291,2.219229 0.40582,8.02827 1.21745,31.21754 0.60873,26.03743 0.60873,25.29022 0.40582,7.86117 0.20291,0.90304 0.20291,0.0702 0.2029,-0.74358 0.60873,-5.38043 0.20291,-2.70254 0.20291,-4.87302 0.20291,-11.42896 0.60873,-12.9148 0.81163,-22.4786 0.60873,-5.92632 0.20291,-1.89468 0.20291,-3.119714 0.40582,-15.584357 0.60872,-31.389432 0.20291,-2.713893 0.20291,2.168008 0.40582,16.315036 0.40582,16.269223 0.20291,3.28929 0.20291,-0.931465 0.40581,-6.09867 0.20291,-0.44947 0.20291,1.977112 0.40582,8.30523 0.20291,1.471863 0.20291,-2.090213 0.40582,-14.397797 0.60872,-24.651167 0.20291,-2.807449 0.20291,1.247978 0.40582,11.235979 0.60873,26.827983 0.60873,27.254585 0.2029,4.37156 0.20291,0.68386 0.20291,-2.7098 1.01455,-28.411172 0.20291,-1.020462 0.40582,0.572382 0.2029,-0.546966 0.40582,-3.606962 0.40582,-3.931665 0.20291,-1.102662 0.20291,-0.133574 0.20291,0.551756 0.40582,3.339428 0.40581,5.781925 0.60873,13.932182 0.60873,13.23395 0.40582,4.405 0.20291,0.62708 0.20291,-0.83211 0.40581,-14.86898 0.20291,-3.95229 0.60873,-18.6768 0.20291,-1.060789 0.20291,1.960733 0.81163,26.807516 0.20291,1.53297 0.20291,-3.21605 0.81164,-24.869185 0.20291,-0.273405 0.60873,7.738717 0.2029,-0.38079 0.20291,-3.569647 0.81164,-23.809937 0.20291,1.598717 1.01454,50.00798 0.20291,4.46867 0.20291,-3.09631 0.20291,0.43139 0.40582,-5.22321 0.20291,-1.74118 0.20291,0.85916 0.40582,9.64614 0.40581,8.93347 0.20291,-1.23199 0.20291,-5.00381 0.60873,-25.739072 0.20291,-3.706775 0.20291,2.271145 0.40582,14.023572 0.20291,6.63019 0.2029,2.68863 0.20291,-2.39244 0.81164,-30.266837 0.20291,0.464072 0.20291,5.105787 0.60873,25.655408 0.20291,3.74239 v 0"
             style="fill:none;stroke:#ff0000;stroke-width:1.5;stroke-linecap:square;stroke-linejoin:round;stroke-miterlimit:10;stroke-dasharray:none;stroke-opacity:1"
             id="path6651" />
        </g>
      </g>
      <g
         id="g6653">
        <g
           id="g6655"
           clip-path="url(#clipPath6659)">
          <path
             d="M 30.990909,89.392453 H 132.44545 l 0.20291,47.421817 h 202.70619 l 0.2029,-47.421817 h 101.25164 v 0"
             style="fill:none;stroke:#526449;stroke-width:2.85165;stroke-linecap:butt;stroke-linejoin:round;stroke-miterlimit:10;stroke-dasharray:10.5511, 4.56265;stroke-dashoffset:0;stroke-opacity:0.8"
             id="path6661" />
        </g>
      </g>
      <path
         style="fill:none;stroke:#000000;stroke-width:1.2;stroke-linecap:butt;stroke-linejoin:miter;stroke-miterlimit:4;stroke-dasharray:none;stroke-opacity:1;marker-end:url(#marker5484)"
         d="M 20.33171,89.397057 H 453.11255"
         id="path6696" />
      <path
         style="fill:none;stroke:#000000;stroke-width:1.23302;stroke-linecap:butt;stroke-linejoin:miter;stroke-miterlimit:4;stroke-dasharray:none;stroke-opacity:1;marker-end:url(#marker6750)"
         d="M 232.27673,89.482818 V 187.51085"
         id="path6746" />
      <text
         xml:space="preserve"
         style="font-size:20px;line-height:1.25;font-family:sans-serif;text-align:center;text-anchor:middle;stroke-width:0.75"
         x="259.11224"
         y="-170.72157"
         id="text7180"
         transform="scale(1,-1)"><tspan
           sodipodi:role="line"
           id="tspan7178"
           x="259.11224"
           y="-170.72157"
           style="font-style:normal;font-variant:normal;font-weight:normal;font-stretch:normal;font-size:20px;font-family:pccmsl10;-inkscape-font-specification:'pccmsl10, Normal';font-variant-ligatures:normal;font-variant-caps:normal;font-variant-numeric:normal;font-variant-east-asian:normal;stroke-width:0.75">x(t)</tspan></text>
      <text
         xml:space="preserve"
         style="font-style:normal;font-variant:normal;font-weight:normal;font-stretch:normal;font-size:20px;line-height:1.25;font-family:pccmsl10;-inkscape-font-specification:'pccmsl10, Normal';font-variant-ligatures:normal;font-variant-caps:normal;font-variant-numeric:normal;font-variant-east-asian:normal;text-align:center;text-anchor:middle;stroke-width:0.75"
         x="453.3667"
         y="-68.526596"
         id="text7180-4"
         transform="scale(1,-1)"><tspan
           sodipodi:role="line"
           id="tspan7212"
           x="453.3667"
           y="-68.526596">t</tspan></text>
      <text
         xml:space="preserve"
         style="font-style:normal;font-variant:normal;font-weight:normal;font-stretch:normal;font-size:20px;line-height:1.25;font-family:pccmsl10;-inkscape-font-specification:'pccmsl10, Normal';font-variant-ligatures:normal;font-variant-caps:normal;font-variant-numeric:normal;font-variant-east-asian:normal;text-align:center;text-anchor:middle;stroke-width:0.75"
         x="329.21463"
         y="-146.78458"
         id="text7180-8"
         transform="scale(1,-1)"><tspan
           sodipodi:role="line"
           id="tspan7232"
           x="329.21463"
           y="-146.78458">w(t)</tspan></text>
      <text
         xml:space="preserve"
         style="font-style:normal;font-variant:normal;font-weight:normal;font-stretch:normal;font-size:20px;line-height:1.25;font-family:pccmsl10;-inkscape-font-specification:'pccmsl10, Normal';font-variant-ligatures:normal;font-variant-caps:normal;font-variant-numeric:normal;font-variant-east-asian:normal;text-align:center;text-anchor:middle;stroke-width:0.75"
         x="222.68159"
         y="-141.3176"
         id="text7180-4-6"
         transform="scale(1,-1)"><tspan
           sodipodi:role="line"
           id="tspan7258"
           x="222.68159"
           y="-141.3176">1</tspan></text>
      <text
         xml:space="preserve"
         style="font-style:normal;font-variant:normal;font-weight:normal;font-stretch:normal;font-size:20px;line-height:1.25;font-family:pccmsl10;-inkscape-font-specification:'pccmsl10, Normal';font-variant-ligatures:normal;font-variant-caps:normal;font-variant-numeric:normal;font-variant-east-asian:normal;text-align:center;text-anchor:middle;stroke-width:0.75"
         x="341.02847"
         y="-32.709999"
         id="text7180-4-4"
         transform="scale(1,-1)"><tspan
           sodipodi:role="line"
           id="tspan7278"
           x="341.02847"
           y="-32.709999">T/2</tspan></text>
      <text
         xml:space="preserve"
         style="font-style:normal;font-variant:normal;font-weight:normal;font-stretch:normal;font-size:20px;line-height:1.25;font-family:pccmsl10;-inkscape-font-specification:'pccmsl10, Normal';font-variant-ligatures:normal;font-variant-caps:normal;font-variant-numeric:normal;font-variant-east-asian:normal;text-align:center;text-anchor:middle;stroke-width:0.75"
         x="122.92243"
         y="-37.881847"
         id="text7180-4-4-2"
         transform="scale(1,-1)"><tspan
           sodipodi:role="line"
           id="tspan1110"
           x="122.92243"
           y="-37.881847">-T/2</tspan></text>
    </g>
  </g>
</svg>
