<?xml version="1.0" encoding="UTF-8" standalone="no"?>
<svg
   xmlns:dc="http://purl.org/dc/elements/1.1/"
   xmlns:cc="http://creativecommons.org/ns#"
   xmlns:rdf="http://www.w3.org/1999/02/22-rdf-syntax-ns#"
   xmlns:svg="http://www.w3.org/2000/svg"
   xmlns="http://www.w3.org/2000/svg"
   xmlns:sodipodi="http://sodipodi.sourceforge.net/DTD/sodipodi-0.dtd"
   xmlns:inkscape="http://www.inkscape.org/namespaces/inkscape"
   width="159.91164mm"
   height="64.087982mm"
   viewBox="0 0 159.91163 64.087983"
   version="1.1"
   id="svg8"
   inkscape:version="1.0.1 (3bc2e813f5, 2020-09-07)"
   sodipodi:docname="windowing_freq.svg">
  <defs
     id="defs2">
    <marker
       style="overflow:visible"
       id="marker6750"
       refX="0"
       refY="0"
       orient="auto"
       inkscape:stockid="Arrow1Mend"
       inkscape:isstock="true">
      <path
         transform="matrix(-0.4,0,0,-0.4,-4,0)"
         style="fill:#000000;fill-opacity:1;fill-rule:evenodd;stroke:#000000;stroke-width:1pt;stroke-opacity:1"
         d="M 0,0 5,-5 -12.5,0 5,5 Z"
         id="path6748" />
    </marker>
    <marker
       style="overflow:visible"
       id="marker5554"
       refX="0"
       refY="0"
       orient="auto"
       inkscape:stockid="Arrow1Mstart"
       inkscape:isstock="true">
      <path
         transform="matrix(0.4,0,0,0.4,4,0)"
         style="fill:#000000;fill-opacity:1;fill-rule:evenodd;stroke:#000000;stroke-width:1pt;stroke-opacity:1"
         d="M 0,0 5,-5 -12.5,0 5,5 Z"
         id="path5552" />
    </marker>
    <rect
       x="-38.46077"
       y="96.425659"
       width="1.8838946"
       height="63.647461"
       id="rect5281" />
    <marker
       style="overflow:visible"
       id="marker3571"
       refX="0"
       refY="0"
       orient="auto"
       inkscape:stockid="Arrow1Mend"
       inkscape:isstock="true">
      <path
         transform="matrix(-0.4,0,0,-0.4,-4,0)"
         style="fill:#000000;fill-opacity:1;fill-rule:evenodd;stroke:#000000;stroke-width:1pt;stroke-opacity:1"
         d="M 0,0 5,-5 -12.5,0 5,5 Z"
         id="path3569" />
    </marker>
    <marker
       style="overflow:visible"
       id="marker1213"
       refX="0"
       refY="0"
       orient="auto"
       inkscape:stockid="Arrow1Send"
       inkscape:isstock="true">
      <path
         transform="matrix(-0.2,0,0,-0.2,-1.2,0)"
         style="fill:#000000;fill-opacity:1;fill-rule:evenodd;stroke:#000000;stroke-width:1pt;stroke-opacity:1"
         d="M 0,0 5,-5 -12.5,0 5,5 Z"
         id="path1211" />
    </marker>
    <marker
       style="overflow:visible"
       id="Arrow1Mstart"
       refX="0"
       refY="0"
       orient="auto"
       inkscape:stockid="Arrow1Mstart"
       inkscape:isstock="true">
      <path
         transform="matrix(0.4,0,0,0.4,4,0)"
         style="fill:#000000;fill-opacity:1;fill-rule:evenodd;stroke:#000000;stroke-width:1pt;stroke-opacity:1"
         d="M 0,0 5,-5 -12.5,0 5,5 Z"
         id="path857" />
    </marker>
    <marker
       style="overflow:visible"
       id="Arrow1Lstart"
       refX="0"
       refY="0"
       orient="auto"
       inkscape:stockid="Arrow1Lstart"
       inkscape:isstock="true">
      <path
         transform="matrix(0.8,0,0,0.8,10,0)"
         style="fill:#000000;fill-opacity:1;fill-rule:evenodd;stroke:#000000;stroke-width:1pt;stroke-opacity:1"
         d="M 0,0 5,-5 -12.5,0 5,5 Z"
         id="path851" />
    </marker>
    <clipPath
       clipPathUnits="userSpaceOnUse"
       id="clipPath1733">
      <path
         d="m 10.7,10.7 h 558 v 166.32 h -558 z"
         id="path1731" />
    </clipPath>
    <clipPath
       clipPathUnits="userSpaceOnUse"
       id="clipPath1755">
      <path
         d="m 10.7,10.7 h 558 v 166.32 h -558 z"
         id="path1753" />
    </clipPath>
    <clipPath
       clipPathUnits="userSpaceOnUse"
       id="clipPath1765">
      <path
         d="M -8,-8 H 8 V 8 H -8 Z"
         id="path1763" />
    </clipPath>
    <clipPath
       clipPathUnits="userSpaceOnUse"
       id="clipPath1777">
      <path
         d="M -8,-8 H 8 V 8 H -8 Z"
         id="path1775" />
    </clipPath>
    <clipPath
       clipPathUnits="userSpaceOnUse"
       id="clipPath1789">
      <path
         d="M -8,-8 H 8 V 8 H -8 Z"
         id="path1787" />
    </clipPath>
    <clipPath
       clipPathUnits="userSpaceOnUse"
       id="clipPath1801">
      <path
         d="M -8,-8 H 8 V 8 H -8 Z"
         id="path1799" />
    </clipPath>
    <clipPath
       clipPathUnits="userSpaceOnUse"
       id="clipPath1813">
      <path
         d="M -8,-8 H 8 V 8 H -8 Z"
         id="path1811" />
    </clipPath>
    <clipPath
       clipPathUnits="userSpaceOnUse"
       id="clipPath1825">
      <path
         d="M -8,-8 H 8 V 8 H -8 Z"
         id="path1823" />
    </clipPath>
    <clipPath
       clipPathUnits="userSpaceOnUse"
       id="clipPath1837">
      <path
         d="M -8,-8 H 8 V 8 H -8 Z"
         id="path1835" />
    </clipPath>
    <clipPath
       clipPathUnits="userSpaceOnUse"
       id="clipPath1847">
      <path
         d="m 10.7,10.7 h 558 v 166.32 h -558 z"
         id="path1845" />
    </clipPath>
    <clipPath
       clipPathUnits="userSpaceOnUse"
       id="clipPath2215">
      <path
         d="m 10.7,10.7 h 558 v 166.32 h -558 z"
         id="path2213" />
    </clipPath>
    <clipPath
       clipPathUnits="userSpaceOnUse"
       id="clipPath2237">
      <path
         d="m 10.7,10.7 h 558 v 166.32 h -558 z"
         id="path2235" />
    </clipPath>
    <clipPath
       clipPathUnits="userSpaceOnUse"
       id="clipPath2247">
      <path
         d="M -8,-8 H 8 V 8 H -8 Z"
         id="path2245" />
    </clipPath>
    <clipPath
       clipPathUnits="userSpaceOnUse"
       id="clipPath2259">
      <path
         d="M -8,-8 H 8 V 8 H -8 Z"
         id="path2257" />
    </clipPath>
    <clipPath
       clipPathUnits="userSpaceOnUse"
       id="clipPath2271">
      <path
         d="M -8,-8 H 8 V 8 H -8 Z"
         id="path2269" />
    </clipPath>
    <clipPath
       clipPathUnits="userSpaceOnUse"
       id="clipPath2283">
      <path
         d="M -8,-8 H 8 V 8 H -8 Z"
         id="path2281" />
    </clipPath>
    <clipPath
       clipPathUnits="userSpaceOnUse"
       id="clipPath2295">
      <path
         d="M -8,-8 H 8 V 8 H -8 Z"
         id="path2293" />
    </clipPath>
    <clipPath
       clipPathUnits="userSpaceOnUse"
       id="clipPath2307">
      <path
         d="M -8,-8 H 8 V 8 H -8 Z"
         id="path2305" />
    </clipPath>
    <clipPath
       clipPathUnits="userSpaceOnUse"
       id="clipPath2319">
      <path
         d="M -8,-8 H 8 V 8 H -8 Z"
         id="path2317" />
    </clipPath>
    <clipPath
       clipPathUnits="userSpaceOnUse"
       id="clipPath2329">
      <path
         d="m 10.7,10.7 h 558 v 166.32 h -558 z"
         id="path2327" />
    </clipPath>
    <clipPath
       clipPathUnits="userSpaceOnUse"
       id="clipPath2215-7">
      <path
         d="m 10.7,10.7 h 558 v 166.32 h -558 z"
         id="path2213-3" />
    </clipPath>
    <clipPath
       clipPathUnits="userSpaceOnUse"
       id="clipPath2237-3">
      <path
         d="m 10.7,10.7 h 558 v 166.32 h -558 z"
         id="path2235-5" />
    </clipPath>
    <clipPath
       clipPathUnits="userSpaceOnUse"
       id="clipPath2247-8">
      <path
         d="M -8,-8 H 8 V 8 H -8 Z"
         id="path2245-0" />
    </clipPath>
    <clipPath
       clipPathUnits="userSpaceOnUse"
       id="clipPath2259-1">
      <path
         d="M -8,-8 H 8 V 8 H -8 Z"
         id="path2257-0" />
    </clipPath>
    <clipPath
       clipPathUnits="userSpaceOnUse"
       id="clipPath2271-8">
      <path
         d="M -8,-8 H 8 V 8 H -8 Z"
         id="path2269-5" />
    </clipPath>
    <clipPath
       clipPathUnits="userSpaceOnUse"
       id="clipPath2283-9">
      <path
         d="M -8,-8 H 8 V 8 H -8 Z"
         id="path2281-7" />
    </clipPath>
    <clipPath
       clipPathUnits="userSpaceOnUse"
       id="clipPath2295-6">
      <path
         d="M -8,-8 H 8 V 8 H -8 Z"
         id="path2293-9" />
    </clipPath>
    <clipPath
       clipPathUnits="userSpaceOnUse"
       id="clipPath2307-4">
      <path
         d="M -8,-8 H 8 V 8 H -8 Z"
         id="path2305-4" />
    </clipPath>
    <clipPath
       clipPathUnits="userSpaceOnUse"
       id="clipPath2319-1">
      <path
         d="M -8,-8 H 8 V 8 H -8 Z"
         id="path2317-6" />
    </clipPath>
    <clipPath
       clipPathUnits="userSpaceOnUse"
       id="clipPath2329-9">
      <path
         d="m 10.7,10.7 h 558 v 166.32 h -558 z"
         id="path2327-3" />
    </clipPath>
    <clipPath
       clipPathUnits="userSpaceOnUse"
       id="clipPath2655">
      <path
         d="m 10.7,10.7 h 279 v 166.32 h -279 z"
         id="path2653" />
    </clipPath>
    <clipPath
       clipPathUnits="userSpaceOnUse"
       id="clipPath2673">
      <path
         d="m 10.7,10.7 h 279 v 166.32 h -279 z"
         id="path2671" />
    </clipPath>
    <clipPath
       clipPathUnits="userSpaceOnUse"
       id="clipPath2683">
      <path
         d="M -8,-8 H 8 V 8 H -8 Z"
         id="path2681" />
    </clipPath>
    <clipPath
       clipPathUnits="userSpaceOnUse"
       id="clipPath2695">
      <path
         d="M -8,-8 H 8 V 8 H -8 Z"
         id="path2693" />
    </clipPath>
    <clipPath
       clipPathUnits="userSpaceOnUse"
       id="clipPath2707">
      <path
         d="M -8,-8 H 8 V 8 H -8 Z"
         id="path2705" />
    </clipPath>
    <clipPath
       clipPathUnits="userSpaceOnUse"
       id="clipPath2719">
      <path
         d="M -8,-8 H 8 V 8 H -8 Z"
         id="path2717" />
    </clipPath>
    <clipPath
       clipPathUnits="userSpaceOnUse"
       id="clipPath2731">
      <path
         d="M -8,-8 H 8 V 8 H -8 Z"
         id="path2729" />
    </clipPath>
    <clipPath
       clipPathUnits="userSpaceOnUse"
       id="clipPath2741">
      <path
         d="m 10.7,10.7 h 279 v 166.32 h -279 z"
         id="path2739" />
    </clipPath>
    <clipPath
       clipPathUnits="userSpaceOnUse"
       id="clipPath2655-7">
      <path
         d="m 10.7,10.7 h 279 v 166.32 h -279 z"
         id="path2653-0" />
    </clipPath>
    <clipPath
       clipPathUnits="userSpaceOnUse"
       id="clipPath2673-5">
      <path
         d="m 10.7,10.7 h 279 v 166.32 h -279 z"
         id="path2671-8" />
    </clipPath>
    <clipPath
       clipPathUnits="userSpaceOnUse"
       id="clipPath2683-4">
      <path
         d="M -8,-8 H 8 V 8 H -8 Z"
         id="path2681-4" />
    </clipPath>
    <clipPath
       clipPathUnits="userSpaceOnUse"
       id="clipPath2695-7">
      <path
         d="M -8,-8 H 8 V 8 H -8 Z"
         id="path2693-4" />
    </clipPath>
    <clipPath
       clipPathUnits="userSpaceOnUse"
       id="clipPath2707-3">
      <path
         d="M -8,-8 H 8 V 8 H -8 Z"
         id="path2705-5" />
    </clipPath>
    <clipPath
       clipPathUnits="userSpaceOnUse"
       id="clipPath2719-0">
      <path
         d="M -8,-8 H 8 V 8 H -8 Z"
         id="path2717-0" />
    </clipPath>
    <clipPath
       clipPathUnits="userSpaceOnUse"
       id="clipPath2731-3">
      <path
         d="M -8,-8 H 8 V 8 H -8 Z"
         id="path2729-8" />
    </clipPath>
    <clipPath
       clipPathUnits="userSpaceOnUse"
       id="clipPath2741-6">
      <path
         d="m 10.7,10.7 h 279 v 166.32 h -279 z"
         id="path2739-7" />
    </clipPath>
    <clipPath
       clipPathUnits="userSpaceOnUse"
       id="clipPath3011">
      <path
         d="m 10.7,10.7 h 279 v 166.32 h -279 z"
         id="path3009" />
    </clipPath>
    <clipPath
       clipPathUnits="userSpaceOnUse"
       id="clipPath3021">
      <path
         d="m 10.7,10.7 h 279 v 166.32 h -279 z"
         id="path3019" />
    </clipPath>
    <clipPath
       clipPathUnits="userSpaceOnUse"
       id="clipPath3039">
      <path
         d="m 10.7,10.7 h 279 v 166.32 h -279 z"
         id="path3037" />
    </clipPath>
    <clipPath
       clipPathUnits="userSpaceOnUse"
       id="clipPath3049">
      <path
         d="M -8,-8 H 8 V 8 H -8 Z"
         id="path3047" />
    </clipPath>
    <clipPath
       clipPathUnits="userSpaceOnUse"
       id="clipPath3061">
      <path
         d="M -8,-8 H 8 V 8 H -8 Z"
         id="path3059" />
    </clipPath>
    <clipPath
       clipPathUnits="userSpaceOnUse"
       id="clipPath3073">
      <path
         d="M -8,-8 H 8 V 8 H -8 Z"
         id="path3071" />
    </clipPath>
    <clipPath
       clipPathUnits="userSpaceOnUse"
       id="clipPath3085">
      <path
         d="M -8,-8 H 8 V 8 H -8 Z"
         id="path3083" />
    </clipPath>
    <clipPath
       clipPathUnits="userSpaceOnUse"
       id="clipPath3097">
      <path
         d="M -8,-8 H 8 V 8 H -8 Z"
         id="path3095" />
    </clipPath>
    <clipPath
       clipPathUnits="userSpaceOnUse"
       id="clipPath3107">
      <path
         d="m 10.7,10.7 h 279 v 166.32 h -279 z"
         id="path3105" />
    </clipPath>
    <clipPath
       clipPathUnits="userSpaceOnUse"
       id="clipPath3011-4">
      <path
         d="m 10.7,10.7 h 279 v 166.32 h -279 z"
         id="path3009-8" />
    </clipPath>
    <clipPath
       clipPathUnits="userSpaceOnUse"
       id="clipPath3021-7">
      <path
         d="m 10.7,10.7 h 279 v 166.32 h -279 z"
         id="path3019-1" />
    </clipPath>
    <clipPath
       clipPathUnits="userSpaceOnUse"
       id="clipPath3039-6">
      <path
         d="m 10.7,10.7 h 279 v 166.32 h -279 z"
         id="path3037-8" />
    </clipPath>
    <clipPath
       clipPathUnits="userSpaceOnUse"
       id="clipPath3049-7">
      <path
         d="M -8,-8 H 8 V 8 H -8 Z"
         id="path3047-5" />
    </clipPath>
    <clipPath
       clipPathUnits="userSpaceOnUse"
       id="clipPath3061-0">
      <path
         d="M -8,-8 H 8 V 8 H -8 Z"
         id="path3059-3" />
    </clipPath>
    <clipPath
       clipPathUnits="userSpaceOnUse"
       id="clipPath3073-3">
      <path
         d="M -8,-8 H 8 V 8 H -8 Z"
         id="path3071-3" />
    </clipPath>
    <clipPath
       clipPathUnits="userSpaceOnUse"
       id="clipPath3085-9">
      <path
         d="M -8,-8 H 8 V 8 H -8 Z"
         id="path3083-6" />
    </clipPath>
    <clipPath
       clipPathUnits="userSpaceOnUse"
       id="clipPath3097-0">
      <path
         d="M -8,-8 H 8 V 8 H -8 Z"
         id="path3095-2" />
    </clipPath>
    <clipPath
       clipPathUnits="userSpaceOnUse"
       id="clipPath3107-2">
      <path
         d="m 10.7,10.7 h 279 v 166.32 h -279 z"
         id="path3105-7" />
    </clipPath>
    <marker
       style="overflow:visible"
       id="marker3571-6"
       refX="0"
       refY="0"
       orient="auto"
       inkscape:stockid="Arrow1Mend"
       inkscape:isstock="true">
      <path
         transform="matrix(-0.4,0,0,-0.4,-4,0)"
         style="fill:#000000;fill-opacity:1;fill-rule:evenodd;stroke:#000000;stroke-width:1pt;stroke-opacity:1"
         d="M 0,0 5,-5 -12.5,0 5,5 Z"
         id="path3569-3" />
    </marker>
    <clipPath
       clipPathUnits="userSpaceOnUse"
       id="clipPath5021">
      <path
         d="m 10.7,10.7 h 279 v 166.32 h -279 z"
         id="path5019" />
    </clipPath>
    <clipPath
       clipPathUnits="userSpaceOnUse"
       id="clipPath5068">
      <path
         d="m 10.7,10.7 h 279 v 166.32 h -279 z"
         id="path5066" />
    </clipPath>
    <clipPath
       clipPathUnits="userSpaceOnUse"
       id="clipPath5115">
      <path
         d="m 10.7,10.7 h 279 v 166.32 h -279 z"
         id="path5113" />
    </clipPath>
    <clipPath
       clipPathUnits="userSpaceOnUse"
       id="clipPath5162">
      <path
         d="m 10.7,10.7 h 279 v 166.32 h -279 z"
         id="path5160" />
    </clipPath>
    <clipPath
       clipPathUnits="userSpaceOnUse"
       id="clipPath6562">
      <path
         d="M 10.7,10.7 H 457.1 V 177.02 H 10.7 Z"
         id="path6560" />
    </clipPath>
    <clipPath
       clipPathUnits="userSpaceOnUse"
       id="clipPath6572">
      <path
         d="M 10.7,10.7 H 457.1 V 177.02 H 10.7 Z"
         id="path6570" />
    </clipPath>
    <clipPath
       clipPathUnits="userSpaceOnUse"
       id="clipPath6582">
      <path
         d="M 10.7,10.7 H 457.1 V 177.02 H 10.7 Z"
         id="path6580" />
    </clipPath>
    <clipPath
       clipPathUnits="userSpaceOnUse"
       id="clipPath6639">
      <path
         d="M 10.7,10.7 H 457.1 V 177.02 H 10.7 Z"
         id="path6637" />
    </clipPath>
    <clipPath
       clipPathUnits="userSpaceOnUse"
       id="clipPath6649">
      <path
         d="M 10.7,10.7 H 457.1 V 177.02 H 10.7 Z"
         id="path6647" />
    </clipPath>
    <clipPath
       clipPathUnits="userSpaceOnUse"
       id="clipPath6659">
      <path
         d="M 10.7,10.7 H 457.1 V 177.02 H 10.7 Z"
         id="path6657" />
    </clipPath>
    <clipPath
       clipPathUnits="userSpaceOnUse"
       id="clipPath7342">
      <path
         d="M 10.7,10.7 H 457.1 V 177.02 H 10.7 Z"
         id="path7340" />
    </clipPath>
    <marker
       style="overflow:visible"
       id="marker6750-6"
       refX="0"
       refY="0"
       orient="auto"
       inkscape:stockid="Arrow1Mend"
       inkscape:isstock="true">
      <path
         transform="matrix(-0.4,0,0,-0.4,-4,0)"
         style="fill:#000000;fill-opacity:1;fill-rule:evenodd;stroke:#000000;stroke-width:1pt;stroke-opacity:1"
         d="M 0,0 5,-5 -12.5,0 5,5 Z"
         id="path6748-5" />
    </marker>
    <marker
       style="overflow:visible"
       id="marker6750-6-1"
       refX="0"
       refY="0"
       orient="auto"
       inkscape:stockid="Arrow1Mend"
       inkscape:isstock="true">
      <path
         transform="matrix(-0.4,0,0,-0.4,-4,0)"
         style="fill:#000000;fill-opacity:1;fill-rule:evenodd;stroke:#000000;stroke-width:1pt;stroke-opacity:1"
         d="M 0,0 5,-5 -12.5,0 5,5 Z"
         id="path6748-5-3" />
    </marker>
    <marker
       style="overflow:visible"
       id="marker5484-2"
       refX="0"
       refY="0"
       orient="auto"
       inkscape:stockid="Arrow1Mend"
       inkscape:isstock="true"
       inkscape:collect="always">
      <path
         transform="matrix(-0.4,0,0,-0.4,-4,0)"
         style="fill:#000000;fill-opacity:1;fill-rule:evenodd;stroke:#000000;stroke-width:1pt;stroke-opacity:1"
         d="M 0,0 5,-5 -12.5,0 5,5 Z"
         id="path5482-5" />
    </marker>
    <clipPath
       clipPathUnits="userSpaceOnUse"
       id="clipPath256">
      <path
         d="M 10.7,10.7 H 457.1 V 177.02 H 10.7 Z"
         id="path254" />
    </clipPath>
    <clipPath
       clipPathUnits="userSpaceOnUse"
       id="clipPath256-8">
      <path
         d="M 10.7,10.7 H 457.1 V 177.02 H 10.7 Z"
         id="path254-9" />
    </clipPath>
  </defs>
  <sodipodi:namedview
     id="base"
     pagecolor="#ffffff"
     bordercolor="#666666"
     borderopacity="1.0"
     inkscape:pageopacity="0.0"
     inkscape:pageshadow="2"
     inkscape:zoom="2.3064269"
     inkscape:cx="117.85587"
     inkscape:cy="101.39958"
     inkscape:document-units="mm"
     inkscape:current-layer="g252"
     inkscape:document-rotation="0"
     showgrid="false"
     fit-margin-top="0"
     fit-margin-left="0"
     fit-margin-right="0"
     fit-margin-bottom="0"
     inkscape:window-width="2400"
     inkscape:window-height="1271"
     inkscape:window-x="-9"
     inkscape:window-y="-9"
     inkscape:window-maximized="1" />
  <metadata
     id="metadata5">
    <rdf:RDF>
      <cc:Work
         rdf:about="">
        <dc:format>image/svg+xml</dc:format>
        <dc:type
           rdf:resource="http://purl.org/dc/dcmitype/StillImage" />
        <dc:title></dc:title>
      </cc:Work>
    </rdf:RDF>
  </metadata>
  <g
     inkscape:label="Layer 1"
     inkscape:groupmode="layer"
     id="layer1"
     transform="translate(-213.55963,-12.585102)">
    <g
       id="g7330"
       inkscape:label="windowing_freq"
       transform="matrix(0.35277777,0,0,-0.35277777,211.97975,74.064125)">
      <path
         d="M 4.4784109,174.27125 H 457.77125 V -7.3954755 H 4.4784109 Z"
         style="fill:#e5e5e5;fill-opacity:1;fill-rule:nonzero;stroke:none;stroke-width:1.05449;stroke-miterlimit:4;stroke-dasharray:none"
         id="path7334" />
      <path
         style="fill:none;stroke:#000000;stroke-width:1.2;stroke-linecap:butt;stroke-linejoin:miter;stroke-miterlimit:4;stroke-dasharray:none;stroke-opacity:1;marker-end:url(#marker5484-2)"
         d="M 11.029016,38.570298 H 443.80986"
         id="path6696-0" />
      <path
         style="fill:none;stroke:#000000;stroke-width:1.41453;stroke-linecap:butt;stroke-linejoin:miter;stroke-miterlimit:4;stroke-dasharray:none;stroke-opacity:1;marker-end:url(#marker6750-6-1)"
         d="M 225.1001,38.65606 V 167.6692"
         id="path6746-5" />
      <text
         xml:space="preserve"
         style="font-style:normal;font-variant:normal;font-weight:normal;font-stretch:normal;font-size:20px;line-height:1.25;font-family:pccmsl10;-inkscape-font-specification:'pccmsl10, Normal';font-variant-ligatures:normal;font-variant-caps:normal;font-variant-numeric:normal;font-variant-east-asian:normal;text-align:center;text-anchor:middle;stroke-width:0.75"
         x="442.93396"
         y="-18.656765"
         id="text7180-4-5"
         transform="scale(1,-1)"><tspan
           sodipodi:role="line"
           id="tspan8032"
           x="442.93396"
           y="-18.656765">f</tspan></text>
      <text
         xml:space="preserve"
         style="font-style:normal;font-variant:normal;font-weight:normal;font-stretch:normal;font-size:20px;line-height:1.25;font-family:pccmsl10;-inkscape-font-specification:'pccmsl10, Normal';font-variant-ligatures:normal;font-variant-caps:normal;font-variant-numeric:normal;font-variant-east-asian:normal;text-align:center;text-anchor:middle;stroke-width:0.75"
         x="254.95557"
         y="-155.52705"
         id="text7180-4-5-9"
         transform="scale(1,-1)"><tspan
           sodipodi:role="line"
           id="tspan8160"
           x="254.95557"
           y="-155.52705">W(f)</tspan></text>
      <text
         xml:space="preserve"
         style="font-style:normal;font-variant:normal;font-weight:normal;font-stretch:normal;font-size:20px;line-height:1.25;font-family:pccmsl10;-inkscape-font-specification:'pccmsl10, Normal';font-variant-ligatures:normal;font-variant-caps:normal;font-variant-numeric:normal;font-variant-east-asian:normal;text-align:center;text-anchor:middle;stroke-width:0.75"
         x="207.56975"
         y="-139.09267"
         id="text7180-4-5-8"
         transform="scale(1,-1)"><tspan
           sodipodi:role="line"
           id="tspan8180"
           x="207.56975"
           y="-139.09267">T</tspan></text>
      <text
         xml:space="preserve"
         style="font-style:normal;font-variant:normal;font-weight:normal;font-stretch:normal;font-size:16px;line-height:1.25;font-family:pccmsl10;-inkscape-font-specification:'pccmsl10, Normal';font-variant-ligatures:normal;font-variant-caps:normal;font-variant-numeric:normal;font-variant-east-asian:normal;text-align:center;text-anchor:middle;stroke-width:0.75"
         x="272.46811"
         y="-47.965645"
         id="text7180-4-5-8-4"
         transform="scale(1,-1)"><tspan
           sodipodi:role="line"
           id="tspan8212"
           x="272.46811"
           y="-47.965645">1/T</tspan></text>
      <text
         xml:space="preserve"
         style="font-style:normal;font-variant:normal;font-weight:normal;font-stretch:normal;font-size:16px;line-height:1.25;font-family:pccmsl10;-inkscape-font-specification:'pccmsl10, Normal';font-variant-ligatures:normal;font-variant-caps:normal;font-variant-numeric:normal;font-variant-east-asian:normal;text-align:center;text-anchor:middle;stroke-width:0.75"
         x="300.90005"
         y="-20.279428"
         id="text7180-4-5-8-4-5"
         transform="scale(1,-1)"><tspan
           sodipodi:role="line"
           id="tspan8274"
           x="300.90005"
           y="-20.279428">2/T</tspan></text>
      <text
         xml:space="preserve"
         style="font-style:normal;font-variant:normal;font-weight:normal;font-stretch:normal;font-size:16px;line-height:1.25;font-family:pccmsl10;-inkscape-font-specification:'pccmsl10, Normal';font-variant-ligatures:normal;font-variant-caps:normal;font-variant-numeric:normal;font-variant-east-asian:normal;text-align:center;text-anchor:middle;stroke-width:0.75"
         x="333.87274"
         y="-46.156738"
         id="text7180-4-5-8-4-3"
         transform="scale(1,-1)"><tspan
           sodipodi:role="line"
           id="tspan8276"
           x="333.87274"
           y="-46.156738">3/T</tspan></text>
      <text
         xml:space="preserve"
         style="font-style:normal;font-variant:normal;font-weight:normal;font-stretch:normal;font-size:16px;line-height:1.25;font-family:pccmsl10;-inkscape-font-specification:'pccmsl10, Normal';font-variant-ligatures:normal;font-variant-caps:normal;font-variant-numeric:normal;font-variant-east-asian:normal;text-align:center;text-anchor:middle;stroke-width:0.75"
         x="178.6089"
         y="-46.991489"
         id="text7180-4-5-8-4-4"
         transform="scale(1,-1)"><tspan
           sodipodi:role="line"
           id="tspan8264"
           x="178.6089"
           y="-46.991489">-1/T</tspan></text>
      <text
         xml:space="preserve"
         style="font-style:normal;font-variant:normal;font-weight:normal;font-stretch:normal;font-size:16px;line-height:1.25;font-family:pccmsl10;-inkscape-font-specification:'pccmsl10, Normal';font-variant-ligatures:normal;font-variant-caps:normal;font-variant-numeric:normal;font-variant-east-asian:normal;text-align:center;text-anchor:middle;stroke-width:0.75"
         x="146.88834"
         y="-21.114182"
         id="text7180-4-5-8-4-9"
         transform="scale(1,-1)"><tspan
           sodipodi:role="line"
           id="tspan8270"
           x="146.88834"
           y="-21.114182">-2/T</tspan></text>
      <text
         xml:space="preserve"
         style="font-style:normal;font-variant:normal;font-weight:normal;font-stretch:normal;font-size:16px;line-height:1.25;font-family:pccmsl10;-inkscape-font-specification:'pccmsl10, Normal';font-variant-ligatures:normal;font-variant-caps:normal;font-variant-numeric:normal;font-variant-east-asian:normal;text-align:center;text-anchor:middle;stroke-width:0.75"
         x="117.67201"
         y="-48.243618"
         id="text7180-4-5-8-4-8"
         transform="scale(1,-1)"><tspan
           sodipodi:role="line"
           id="tspan8272"
           x="117.67201"
           y="-48.243618">-3/T</tspan></text>
      <g
         id="g250"
         style="display:inline"
         transform="matrix(1,0,0,0.87558178,-7.8751982,-3.0681645)">
        <g
           id="g252"
           clip-path="url(#clipPath256-8)">
          <path
             d="m 30.503142,51.246698 2.232056,-0.924824 2.516136,-1.290792 3.16546,-1.890254 8.684727,-5.327615 2.455261,-1.159754 2.140744,-0.771094 1.968268,-0.476079 1.86681,-0.224166 1.805936,0.0055 1.805936,0.228653 1.836373,0.458796 1.917539,0.711964 2.059579,1.007591 2.303076,1.382792 2.779924,1.942485 5.001834,3.832445 3.591581,2.604176 2.465407,1.519718 2.090016,1.033822 1.876956,0.685632 1.745062,0.404878 1.663896,0.161129 1.633459,-0.06462 1.633459,-0.288836 1.663896,-0.522562 1.734916,-0.781415 1.856665,-1.085493 2.049433,-1.463679 2.384243,-1.988583 3.16546,-2.954674 6.3715,-6.004082 2.35381,-1.869756 1.96826,-1.289029 1.74506,-0.885357 1.60303,-0.570378 1.51171,-0.305735 1.45083,-0.06943 1.43055,0.153442 1.44069,0.380065 1.48127,0.625255 1.54215,0.89673 1.65375,1.22578 1.80594,1.624277 2.03928,2.144204 2.46541,2.932759 3.86551,4.999582 3.98727,5.041993 2.30307,2.558416 1.87696,1.766346 1.63346,1.24388 1.47113,0.849975 1.35952,0.53385 1.26821,0.264248 1.22764,0.03004 1.20733,-0.194329 1.21749,-0.425202 1.24792,-0.676322 1.3088,-0.969062 1.38996,-1.313764 1.50157,-1.734715 1.65375,-2.263402 1.85666,-2.933769 2.18133,-3.88409 2.88138,-5.624713 6.31063,-12.450524 2.09001,-3.551113 1.70448,-2.477652 1.46099,-1.7503 1.2885,-1.212129 1.15661,-0.793726 1.04501,-0.457822 0.97399,-0.190978 0.9334,0.04108 0.92326,0.26515 0.93341,0.502606 0.97399,0.78278 1.03486,1.127118 1.10588,1.546343 1.18705,2.056621 1.27836,2.674839 1.38996,3.44473 1.50156,4.335074 1.64361,5.446549 1.81608,6.81585 2.03929,8.552768 2.3538,10.871687 2.94226,14.70557 10.24716,52.192993 2.22191,9.63283 1.89725,7.27901 1.67404,5.5751 1.49142,4.22298 1.32909,3.12759 1.19719,2.27718 1.07545,1.59323 0.97399,1.06429 0.88267,0.64861 0.81166,0.32873 0.76093,0.0741 0.75078,-0.14917 0.78122,-0.3891 0.83195,-0.67511 0.90296,-1.03403 0.98414,-1.47863 1.08559,-2.04694 1.20734,-2.77261 1.33923,-3.65971 1.48128,-4.72016 1.66389,-6.07402 1.89725,-7.80647 2.21176,-10.08559 2.77993,-13.78237 5.09314,-26.651123 3.87566,-19.678982 2.62774,-12.231608 2.20162,-9.232518 1.93783,-7.20507 1.74506,-5.665055 1.59288,-4.442817 1.46098,-3.439447 1.33923,-2.608062 1.23778,-1.944688 1.14647,-1.404339 1.06529,-0.967637 1.00443,-0.620958 0.9537,-0.33477 0.9334,-0.09491 0.94355,0.129327 0.98414,0.365484 1.04501,0.632019 1.14646,0.96324 1.26821,1.366882 1.44069,1.894815 1.6639,2.574161 2.00885,3.541691 2.7089,5.267147 6.73675,13.277547 2.22191,3.785567 1.88711,2.791485 1.67404,2.092758 1.52185,1.558162 1.41026,1.134109 1.31894,0.782647 1.25807,0.493226 1.21748,0.242697 1.21749,0.0158 1.22763,-0.20706 1.27836,-0.44332 1.35952,-0.711157 1.48128,-1.033172 1.6436,-1.426361 1.8871,-1.943111 2.31322,-2.719483 3.51042,-4.518353 4.53513,-5.767988 2.42482,-2.719847 2.019,-1.942974 1.79579,-1.429376 1.64361,-1.03246 1.54214,-0.712813 1.48128,-0.443167 1.44069,-0.201455 1.44069,0.02296 1.47113,0.248631 1.532,0.489203 1.62331,0.756267 1.7755,1.078263 2.019,1.496415 2.43497,2.097142 3.63216,3.460704 4.77863,4.500163 2.52628,2.068453 2.12045,1.458563 1.90739,1.048687 1.76536,0.722456 1.68419,0.452729 1.6436,0.212811 1.63346,-0.01285 1.6639,-0.237499 1.72477,-0.473313 1.84652,-0.742245 2.02914,-1.062036 2.34365,-1.487159 3.03357,-2.207284 7.93395,-5.898799 2.45526,-1.473216 2.14074,-1.032575 1.96827,-0.707575 1.86681,-0.437939 1.81608,-0.199042 1.80594,0.02563 1.83637,0.249187 1.91754,0.486904 2.05958,0.756543 2.30307,1.089737 2.76978,1.568613 4.45397,2.821814 4.42353,2.71128 2.73934,1.419864 2.26249,0.940038 v 0"
             style="display:inline;fill:none;stroke:#e24a33;stroke-width:2.1054;stroke-linecap:square;stroke-linejoin:round;stroke-miterlimit:10;stroke-dasharray:none;stroke-opacity:1"
             id="path258" />
        </g>
      </g>
      <path
         style="fill:none;stroke:#000000;stroke-width:1.35529;stroke-linecap:butt;stroke-linejoin:miter;stroke-miterlimit:4;stroke-dasharray:none;stroke-opacity:1"
         d="M 130.17272,42.622586 V 35.566901"
         id="path8280" />
      <path
         style="fill:none;stroke:#000000;stroke-width:1.35529;stroke-linecap:butt;stroke-linejoin:miter;stroke-miterlimit:4;stroke-dasharray:none;stroke-opacity:1"
         d="m 161.1576,42.155542 v -7.05569"
         id="path8280-9" />
      <path
         style="fill:none;stroke:#000000;stroke-width:1.35529;stroke-linecap:butt;stroke-linejoin:miter;stroke-miterlimit:4;stroke-dasharray:none;stroke-opacity:1"
         d="m 193.62183,42.598236 v -7.05569"
         id="path8280-0" />
      <path
         style="fill:none;stroke:#000000;stroke-width:1.35529;stroke-linecap:butt;stroke-linejoin:miter;stroke-miterlimit:4;stroke-dasharray:none;stroke-opacity:1"
         d="m 258.00326,42.641457 v -7.05569"
         id="path8280-7" />
      <path
         style="fill:none;stroke:#000000;stroke-width:1.35529;stroke-linecap:butt;stroke-linejoin:miter;stroke-miterlimit:4;stroke-dasharray:none;stroke-opacity:1"
         d="m 290.67802,42.155542 v -7.05569"
         id="path8280-4" />
      <path
         style="fill:none;stroke:#000000;stroke-width:1.35529;stroke-linecap:butt;stroke-linejoin:miter;stroke-miterlimit:4;stroke-dasharray:none;stroke-opacity:1"
         d="m 322.50691,42.155542 v -7.05569"
         id="path8280-3" />
    </g>
  </g>
</svg>
